<svg xmlns="http://www.w3.org/2000/svg" xmlns:xlink="http://www.w3.org/1999/xlink" contentStyleType="text/css" height="808px" preserveAspectRatio="none" style="width:654px;height:808px;background:#FFFFFF;" version="1.1" viewBox="0 0 654 808" width="654px" zoomAndPan="magnify"><defs><filter height="300%" id="f1bt03yk4s7x6h" width="300%" x="-1" y="-1"><feGaussianBlur result="blurOut" stdDeviation="2.0"/><feColorMatrix in="blurOut" result="blurOut2" type="matrix" values="0 0 0 0 0 0 0 0 0 0 0 0 0 0 0 0 0 0 .4 0"/><feOffset dx="4.0" dy="4.0" in="blurOut2" result="blurOut3"/><feBlend in="SourceGraphic" in2="blurOut3" mode="normal"/></filter></defs><g><!--cluster Domain Layer--><g id="cluster_Domain Layer"><rect fill="#FCFDB9" filter="url(#f1bt03yk4s7x6h)" height="173" style="stroke:#000000;stroke-width:1.5;" width="168" x="359.49" y="623.602"/><text fill="#000000" font-family="sans-serif" font-size="14" font-weight="bold" lengthAdjust="spacing" textLength="97.2996" x="394.8402" y="640.5679">Domain Layer</text></g><!--cluster Domain--><g id="cluster_Domain"><polygon fill="#FFFFFF" filter="url(#f1bt03yk4s7x6h)" points="383.49,669.602,444.1878,669.602,451.1878,694.6699,503.49,694.6699,503.49,772.602,383.49,772.602,383.49,669.602" style="stroke:#000000;stroke-width:1.5;"/><line style="stroke:#000000;stroke-width:1.5;" x1="383.49" x2="451.1878" y1="694.6699" y2="694.6699"/><text fill="#000000" font-family="sans-serif" font-size="14" font-weight="bold" lengthAdjust="spacing" textLength="54.6978" x="387.49" y="686.5679">Domain</text></g><!--cluster Application Layer--><g id="cluster_Application Layer"><rect fill="#FFA09C" filter="url(#f1bt03yk4s7x6h)" height="188" style="stroke:#000000;stroke-width:1.5;" width="424" x="47.49" y="384.602"/><text fill="#000000" font-family="sans-serif" font-size="14" font-weight="bold" lengthAdjust="spacing" textLength="122.3875" x="198.2962" y="401.5679">Application Layer</text></g><!--cluster Application--><g id="cluster_Application"><polygon fill="#FFFFFF" filter="url(#f1bt03yk4s7x6h)" points="71.49,430.602,157.2757,430.602,164.2757,455.6699,447.49,455.6699,447.49,548.602,71.49,548.602,71.49,430.602" style="stroke:#000000;stroke-width:1.5;"/><line style="stroke:#000000;stroke-width:1.5;" x1="71.49" x2="164.2757" y1="455.6699" y2="455.6699"/><text fill="#000000" font-family="sans-serif" font-size="14" font-weight="bold" lengthAdjust="spacing" textLength="79.7857" x="75.49" y="447.5679">Application</text></g><!--cluster Interface Adapters Layer--><g id="cluster_Interface Adapters Layer"><rect fill="#A2FDBA" filter="url(#f1bt03yk4s7x6h)" height="173" style="stroke:#000000;stroke-width:1.5;" width="327" x="70.49" y="160.602"/><text fill="#000000" font-family="sans-serif" font-size="14" font-weight="bold" lengthAdjust="spacing" textLength="174.4393" x="146.7703" y="177.5679">Interface Adapters Layer</text></g><!--cluster API--><g id="cluster_API"><polygon fill="#FFFFFF" filter="url(#f1bt03yk4s7x6h)" points="94.49,206.602,124.3879,206.602,131.3879,231.6699,373.49,231.6699,373.49,309.602,94.49,309.602,94.49,206.602" style="stroke:#000000;stroke-width:1.5;"/><line style="stroke:#000000;stroke-width:1.5;" x1="94.49" x2="131.3879" y1="231.6699" y2="231.6699"/><text fill="#000000" font-family="sans-serif" font-size="14" font-weight="bold" lengthAdjust="spacing" textLength="23.8979" x="98.49" y="223.5679">API</text></g><!--cluster Infrastructure Layer--><g id="cluster_Infrastructure Layer"><rect fill="#A7D7FD" filter="url(#f1bt03yk4s7x6h)" height="173" style="stroke:#000000;stroke-width:1.5;" width="221" x="421.49" y="160.602"/><text fill="#000000" font-family="sans-serif" font-size="14" font-weight="bold" lengthAdjust="spacing" textLength="143.1635" x="460.4083" y="177.5679">Infrastructure Layer</text></g><!--cluster Persistence.InMemory--><g id="cluster_Persistence.InMemory"><polygon fill="#FFFFFF" filter="url(#f1bt03yk4s7x6h)" points="445.49,206.602,608.9614,206.602,615.9614,231.6699,618.49,231.6699,618.49,309.602,445.49,309.602,445.49,206.602" style="stroke:#000000;stroke-width:1.5;"/><line style="stroke:#000000;stroke-width:1.5;" x1="445.49" x2="615.9614" y1="231.6699" y2="231.6699"/><text fill="#000000" font-family="sans-serif" font-size="14" font-weight="bold" lengthAdjust="spacing" textLength="157.4714" x="449.49" y="223.5679">Persistence.InMemory</text></g><!--cluster Tests--><g id="cluster_Tests"><polygon fill="#FFFFFF" filter="url(#f1bt03yk4s7x6h)" points="68.49,6.602,110.8619,6.602,117.8619,31.6699,252.49,31.6699,252.49,109.602,68.49,109.602,68.49,6.602" style="stroke:#000000;stroke-width:1.5;"/><line style="stroke:#000000;stroke-width:1.5;" x1="68.49" x2="117.8619" y1="31.6699" y2="31.6699"/><text fill="#000000" font-family="sans-serif" font-size="14" font-weight="bold" lengthAdjust="spacing" textLength="36.3719" x="72.49" y="23.5679">Tests</text></g><!--entity Entities--><g id="elem_Entities"><rect fill="#FEFECE" filter="url(#f1bt03yk4s7x6h)" height="49.0679" style="stroke:#A80036;stroke-width:1.0;" width="88.3698" x="399.49" y="707.602"/><rect fill="#FEFECE" height="10" style="stroke:#A80036;stroke-width:1.0;" width="15" x="467.8598" y="712.602"/><rect fill="#FEFECE" height="2" style="stroke:#A80036;stroke-width:1.0;" width="4" x="465.8598" y="714.602"/><rect fill="#FEFECE" height="2" style="stroke:#A80036;stroke-width:1.0;" width="4" x="465.8598" y="718.602"/><text fill="#000000" font-family="sans-serif" font-size="14" lengthAdjust="spacing" textLength="48.3698" x="414.49" y="742.5679">Entities</text></g><!--entity DrivenPorts--><g id="elem_DrivenPorts"><ellipse cx="385.49" cy="500.602" fill="#FEFECE" filter="url(#f1bt03yk4s7x6h)" rx="8" ry="8" style="stroke:#A80036;stroke-width:1.0;"/><text fill="#000000" font-family="sans-serif" font-size="14" lengthAdjust="spacing" textLength="77.7557" x="346.6121" y="532.5679">DrivenPorts</text></g><!--entity Use Cases--><g id="elem_Use Cases"><rect fill="#FEFECE" filter="url(#f1bt03yk4s7x6h)" height="49.0679" style="stroke:#A80036;stroke-width:1.0;" width="106.4857" x="198.49" y="476.102"/><rect fill="#FEFECE" height="10" style="stroke:#A80036;stroke-width:1.0;" width="15" x="284.9757" y="481.102"/><rect fill="#FEFECE" height="2" style="stroke:#A80036;stroke-width:1.0;" width="4" x="282.9757" y="483.102"/><rect fill="#FEFECE" height="2" style="stroke:#A80036;stroke-width:1.0;" width="4" x="282.9757" y="487.102"/><text fill="#000000" font-family="sans-serif" font-size="14" lengthAdjust="spacing" textLength="66.4857" x="213.49" y="511.0679">Use Cases</text></g><!--entity DTOs--><g id="elem_DTOs"><rect fill="#FEFECE" filter="url(#f1bt03yk4s7x6h)" height="49.0679" style="stroke:#A80036;stroke-width:1.0;" width="75.6439" x="87.49" y="476.102"/><rect fill="#FEFECE" height="10" style="stroke:#A80036;stroke-width:1.0;" width="15" x="143.1339" y="481.102"/><rect fill="#FEFECE" height="2" style="stroke:#A80036;stroke-width:1.0;" width="4" x="141.1339" y="483.102"/><rect fill="#FEFECE" height="2" style="stroke:#A80036;stroke-width:1.0;" width="4" x="141.1339" y="487.102"/><text fill="#000000" font-family="sans-serif" font-size="14" lengthAdjust="spacing" textLength="35.6439" x="102.49" y="511.0679">DTOs</text></g><!--entity Controllers--><g id="elem_Controllers"><rect fill="#FEFECE" filter="url(#f1bt03yk4s7x6h)" height="49.0679" style="stroke:#A80036;stroke-width:1.0;" width="112.8837" x="110.99" y="244.602"/><rect fill="#FEFECE" height="10" style="stroke:#A80036;stroke-width:1.0;" width="15" x="203.8737" y="249.602"/><rect fill="#FEFECE" height="2" style="stroke:#A80036;stroke-width:1.0;" width="4" x="201.8737" y="251.602"/><rect fill="#FEFECE" height="2" style="stroke:#A80036;stroke-width:1.0;" width="4" x="201.8737" y="255.602"/><text fill="#000000" font-family="sans-serif" font-size="14" lengthAdjust="spacing" textLength="72.8837" x="125.99" y="279.5679">Controllers</text></g><!--entity Program--><g id="elem_Program"><rect fill="#FEFECE" filter="url(#f1bt03yk4s7x6h)" height="49.0679" style="stroke:#A80036;stroke-width:1.0;" width="98.0578" x="259.49" y="244.602"/><rect fill="#FEFECE" height="10" style="stroke:#A80036;stroke-width:1.0;" width="15" x="337.5478" y="249.602"/><rect fill="#FEFECE" height="2" style="stroke:#A80036;stroke-width:1.0;" width="4" x="335.5478" y="251.602"/><rect fill="#FEFECE" height="2" style="stroke:#A80036;stroke-width:1.0;" width="4" x="335.5478" y="255.602"/><text fill="#000000" font-family="sans-serif" font-size="14" lengthAdjust="spacing" textLength="58.0578" x="274.49" y="279.5679">Program</text></g><!--entity Repositories--><g id="elem_Repositories"><rect fill="#FEFECE" filter="url(#f1bt03yk4s7x6h)" height="49.0679" style="stroke:#A80036;stroke-width:1.0;" width="121.5217" x="461.49" y="244.602"/><rect fill="#FEFECE" height="10" style="stroke:#A80036;stroke-width:1.0;" width="15" x="563.0117" y="249.602"/><rect fill="#FEFECE" height="2" style="stroke:#A80036;stroke-width:1.0;" width="4" x="561.0117" y="251.602"/><rect fill="#FEFECE" height="2" style="stroke:#A80036;stroke-width:1.0;" width="4" x="561.0117" y="255.602"/><text fill="#000000" font-family="sans-serif" font-size="14" lengthAdjust="spacing" textLength="81.5217" x="476.49" y="279.5679">Repositories</text></g><!--entity Integration Tests--><g id="elem_Integration Tests"><rect fill="#FEFECE" filter="url(#f1bt03yk4s7x6h)" height="49.0679" style="stroke:#A80036;stroke-width:1.0;" width="152.1676" x="84.49" y="44.602"/><rect fill="#FEFECE" height="10" style="stroke:#A80036;stroke-width:1.0;" width="15" x="216.6576" y="49.602"/><rect fill="#FEFECE" height="2" style="stroke:#A80036;stroke-width:1.0;" width="4" x="214.6576" y="51.602"/><rect fill="#FEFECE" height="2" style="stroke:#A80036;stroke-width:1.0;" width="4" x="214.6576" y="55.602"/><text fill="#000000" font-family="sans-serif" font-size="14" lengthAdjust="spacing" textLength="112.1676" x="99.49" y="79.5679">Integration Tests</text></g><!--link Use Cases to Entities--><g id="link_Use Cases_Entities"><path d="M271.31,525.302 C308.2,569.392 383.1202,658.94 419.9202,702.93 " fill="none" id="Use Cases-to-Entities" style="stroke:#A80036;stroke-width:1.0;stroke-dasharray:7.0,7.0;"/><polygon fill="#A80036" points="423.77,707.532,421.0633,698.0624,420.5618,703.697,414.9272,703.1955,423.77,707.532" style="stroke:#A80036;stroke-width:1.0;"/><text fill="#000000" font-family="sans-serif" font-size="13" lengthAdjust="spacing" textLength="21.593" x="336.49" y="603.499">use</text></g><!--link Controllers to Use Cases--><g id="link_Controllers_Use Cases"><path d="M187.23,293.692 C198.88,308.792 212.97,329.292 221.49,349.602 C239.26,391.972 246.1247,439.6106 249.0947,469.9106 " fill="none" id="Controllers-to-Use Cases" style="stroke:#A80036;stroke-width:1.0;"/><polygon fill="#A80036" points="249.68,475.882,252.783,466.5347,249.1922,470.9058,244.8211,467.3151,249.68,475.882" style="stroke:#A80036;stroke-width:1.0;"/><text fill="#000000" font-family="sans-serif" font-size="13" lengthAdjust="spacing" textLength="20.241" x="227.49" y="364.499">call</text></g><!--link Controllers to DTOs--><g id="link_Controllers_DTOs"><path d="M145.36,293.782 C133.07,308.602 118.99,328.772 112.49,349.602 C99.05,392.642 108.031,439.999 116.351,470.089 " fill="none" id="Controllers-to-DTOs" style="stroke:#A80036;stroke-width:1.0;stroke-dasharray:7.0,7.0;"/><polygon fill="#A80036" points="117.95,475.872,119.4068,466.1315,116.6175,471.0528,111.6961,468.2635,117.95,475.872" style="stroke:#A80036;stroke-width:1.0;"/><text fill="#000000" font-family="sans-serif" font-size="13" lengthAdjust="spacing" textLength="103.2331" x="113.49" y="364.499">send and receive</text></g><!--link Repositories to Entities--><g id="link_Repositories_Entities"><path d="M518.41,293.912 C504.81,373.292 462.1229,622.3481 448.5629,701.5181 " fill="none" id="Repositories-to-Entities" style="stroke:#A80036;stroke-width:1.0;stroke-dasharray:7.0,7.0;"/><polygon fill="#A80036" points="447.55,707.432,453.012,699.2364,448.3941,702.5037,445.1268,697.8859,447.55,707.432" style="stroke:#A80036;stroke-width:1.0;"/><text fill="#000000" font-family="sans-serif" font-size="13" lengthAdjust="spacing" textLength="21.593" x="503.49" y="505.999">use</text></g><!--link Repositories to DrivenPorts--><g id="link_Repositories_DrivenPorts"><path d="M485.23,293.622 C465.75,307.682 443,327.162 428.49,349.602 C397.6,397.372 390.179,449.7952 387.889,473.5252 " fill="none" id="Repositories-to-DrivenPorts" style="stroke:#A80036;stroke-width:1.0;stroke-dasharray:7.0,7.0;"/><polygon fill="none" points="386.16,491.442,393.8613,474.1016,381.9168,472.9489,386.16,491.442" style="stroke:#A80036;stroke-width:1.0;"/><text fill="#000000" font-family="sans-serif" font-size="13" lengthAdjust="spacing" textLength="66.4041" x="429.49" y="364.499">implement</text></g><!--link Integration Tests to Program--><g id="link_Integration Tests_Program"><path d="M228.15,93.602 C243.54,101.682 258.56,112.182 269.49,125.602 C297.75,160.302 305.1935,207.9265 307.3235,238.5365 " fill="none" id="Integration Tests-to-Program" style="stroke:#A80036;stroke-width:1.0;"/><polygon fill="#A80036" points="307.74,244.522,311.1056,235.266,307.3929,239.534,303.1249,235.8214,307.74,244.522" style="stroke:#A80036;stroke-width:1.0;"/><text fill="#000000" font-family="sans-serif" font-size="13" lengthAdjust="spacing" textLength="50.063" x="281.49" y="140.499">exercise</text></g><!--link Integration Tests to Controllers--><g id="link_Integration Tests_Controllers"><path d="M158.92,93.862 C158.35,103.682 157.77,115.182 157.49,125.602 C156.36,167.502 160.3755,210.2235 163.7155,238.4735 " fill="none" id="Integration Tests-to-Controllers" style="stroke:#A80036;stroke-width:1.0;stroke-dasharray:7.0,7.0;"/><polygon fill="#A80036" points="164.42,244.432,167.3356,235.0246,163.8329,239.4666,159.391,235.9639,164.42,244.432" style="stroke:#A80036;stroke-width:1.0;"/><text fill="#000000" font-family="sans-serif" font-size="13" lengthAdjust="spacing" textLength="106.2491" x="158.49" y="140.499">simulate API calls</text></g><!--link Integration Tests to DTOs--><g id="link_Integration Tests_DTOs"><path d="M116.17,93.742 C94.82,107.742 71.33,127.642 59.49,152.602 C6,265.352 76.3384,412.8714 108.6284,470.7914 " fill="none" id="Integration Tests-to-DTOs" style="stroke:#A80036;stroke-width:1.0;stroke-dasharray:7.0,7.0;"/><polygon fill="#A80036" points="111.55,476.032,110.6613,466.2233,109.1153,471.6648,103.6738,470.1188,111.55,476.032" style="stroke:#A80036;stroke-width:1.0;"/><text fill="#000000" font-family="sans-serif" font-size="13" lengthAdjust="spacing" textLength="33.761" x="60.49" y="274.499">verify</text></g><!--SRC=[TLF1RXen4BtxAqRqG7e0gbwYS41Ae0UaLaKLFKKS7EyiMF7QbZqRYjhyUyUxi7WX825Pdl5xRzwR7Uw8V9nE9jv8ItLbnifLamAzSOSABOqABRT1LYA-QWl1HHJDqKk-12_LgzmY_1K0JtpU1bVROkwC2x3VQKBnBaH0HT9k3S9WuIh9CD_b0SC0FfMgB5uUcjVGOHsR1iVhz7l-PacJnhXfhjulK1-zDrf9qYw3BkMN1tK9dNNc-DeIXb8gX4NGRsXNBb0yi_-E27CPJ_JDtMBzyuQQPGVsM4ZFvzY9abzvNdabQhNi3Jjtbe8pXbzcXAlWKWwtECiW8uLQKHtmp7TVt9V59T-AWNKaj0h7I_i3AnSEFG6_qBkeoOM-unt06YF5quldD2yhQznlAflKF8Gy5Tudj4K4FhRfYinK68zdMSGmXJfj6IEibg2aCJ45v7g0tMlHimj6ercU5sCbW8kcXgy9aEkHXO7aFzk977uYpXm2NNc3wKk885_OOgcIWCWZbTfYmTAE8qqoVQBluSSJNlNyc-NxnrqTTnArtY4Sbm3kc9NT-Gnx7J12xOyEisB66ejXjowj8ndivghOZ_kosjj6bf77JIdkzkjXMrWCxO1O9YiE1_2EAt3NwEJutZ3eyi2rOaHkb5mlZTjpWDSBr39tEgQ0Vp0edJpxeBanjnSmfwghsaZ2ymxTVdhQX5QW-0y0]--></g></svg>