<svg xmlns="http://www.w3.org/2000/svg" xmlns:xlink="http://www.w3.org/1999/xlink" contentStyleType="text/css" height="665px" preserveAspectRatio="none" style="width:675px;height:665px;background:#FFFFFF;" version="1.1" viewBox="0 0 675 665" width="675px" zoomAndPan="magnify"><defs><filter height="300%" id="fy37uzm4ynkod" width="300%" x="-1" y="-1"><feGaussianBlur result="blurOut" stdDeviation="2.0"/><feColorMatrix in="blurOut" result="blurOut2" type="matrix" values="0 0 0 0 0 0 0 0 0 0 0 0 0 0 0 0 0 0 .4 0"/><feOffset dx="4.0" dy="4.0" in="blurOut2" result="blurOut3"/><feBlend in="SourceGraphic" in2="blurOut3" mode="normal"/></filter></defs><g><!--cluster Domain--><g id="cluster_Domain"><polygon fill="none" filter="url(#fy37uzm4ynkod)" points="162,553.602,222.6978,553.602,229.6978,578.6699,282,578.6699,282,656.602,162,656.602,162,553.602" style="stroke:#000000;stroke-width:1.5;"/><line style="stroke:#000000;stroke-width:1.5;" x1="162" x2="229.6978" y1="578.6699" y2="578.6699"/><text fill="#000000" font-family="sans-serif" font-size="14" font-weight="bold" lengthAdjust="spacing" textLength="54.6978" x="166" y="570.5679">Domain</text></g><!--cluster Application--><g id="cluster_Application"><polygon fill="none" filter="url(#fy37uzm4ynkod)" points="162,384.602,247.7857,384.602,254.7857,409.6699,538,409.6699,538,502.602,162,502.602,162,384.602" style="stroke:#000000;stroke-width:1.5;"/><line style="stroke:#000000;stroke-width:1.5;" x1="162" x2="254.7857" y1="409.6699" y2="409.6699"/><text fill="#000000" font-family="sans-serif" font-size="14" font-weight="bold" lengthAdjust="spacing" textLength="79.7857" x="166" y="401.5679">Application</text></g><!--cluster Infrastructure--><g id="cluster_Infrastructure"><rect fill="none" filter="url(#fy37uzm4ynkod)" height="173" style="stroke:#000000;stroke-width:1.5;" width="221" x="7" y="160.602"/><text fill="#000000" font-family="sans-serif" font-size="14" font-weight="bold" lengthAdjust="spacing" textLength="100.5616" x="67.2192" y="177.5679">Infrastructure</text></g><!--cluster Persistence.InMemory--><g id="cluster_Persistence.InMemory"><polygon fill="none" filter="url(#fy37uzm4ynkod)" points="31,206.602,194.4714,206.602,201.4714,231.6699,204,231.6699,204,309.602,31,309.602,31,206.602" style="stroke:#000000;stroke-width:1.5;"/><line style="stroke:#000000;stroke-width:1.5;" x1="31" x2="201.4714" y1="231.6699" y2="231.6699"/><text fill="#000000" font-family="sans-serif" font-size="14" font-weight="bold" lengthAdjust="spacing" textLength="157.4714" x="35" y="223.5679">Persistence.InMemory</text></g><!--cluster Interface Adapters--><g id="cluster_Interface Adapters"><rect fill="none" filter="url(#fy37uzm4ynkod)" height="173" style="stroke:#000000;stroke-width:1.5;" width="327" x="336" y="160.602"/><text fill="#000000" font-family="sans-serif" font-size="14" font-weight="bold" lengthAdjust="spacing" textLength="131.8375" x="433.5813" y="177.5679">Interface Adapters</text></g><!--cluster API--><g id="cluster_API"><polygon fill="none" filter="url(#fy37uzm4ynkod)" points="360,206.602,389.8979,206.602,396.8979,231.6699,639,231.6699,639,309.602,360,309.602,360,206.602" style="stroke:#000000;stroke-width:1.5;"/><line style="stroke:#000000;stroke-width:1.5;" x1="360" x2="396.8979" y1="231.6699" y2="231.6699"/><text fill="#000000" font-family="sans-serif" font-size="14" font-weight="bold" lengthAdjust="spacing" textLength="23.8979" x="364" y="223.5679">API</text></g><!--cluster Tests--><g id="cluster_Tests"><polygon fill="none" filter="url(#fy37uzm4ynkod)" points="334,6.602,376.3719,6.602,383.3719,31.6699,518,31.6699,518,109.602,334,109.602,334,6.602" style="stroke:#000000;stroke-width:1.5;"/><line style="stroke:#000000;stroke-width:1.5;" x1="334" x2="383.3719" y1="31.6699" y2="31.6699"/><text fill="#000000" font-family="sans-serif" font-size="14" font-weight="bold" lengthAdjust="spacing" textLength="36.3719" x="338" y="23.5679">Tests</text></g><!--entity Entities--><g id="elem_Entities"><rect fill="#FEFECE" filter="url(#fy37uzm4ynkod)" height="49.0679" style="stroke:#A80036;stroke-width:1.0;" width="88.3698" x="178" y="591.602"/><rect fill="#FEFECE" height="10" style="stroke:#A80036;stroke-width:1.0;" width="15" x="246.3698" y="596.602"/><rect fill="#FEFECE" height="2" style="stroke:#A80036;stroke-width:1.0;" width="4" x="244.3698" y="598.602"/><rect fill="#FEFECE" height="2" style="stroke:#A80036;stroke-width:1.0;" width="4" x="244.3698" y="602.602"/><text fill="#000000" font-family="sans-serif" font-size="14" lengthAdjust="spacing" textLength="48.3698" x="193" y="626.5679">Entities</text></g><!--entity DrivenPorts--><g id="elem_DrivenPorts"><ellipse cx="224" cy="454.602" fill="#FEFECE" filter="url(#fy37uzm4ynkod)" rx="8" ry="8" style="stroke:#A80036;stroke-width:1.0;"/><text fill="#000000" font-family="sans-serif" font-size="14" lengthAdjust="spacing" textLength="77.7557" x="185.1221" y="486.5679">DrivenPorts</text></g><!--entity Use Cases--><g id="elem_Use Cases"><rect fill="#FEFECE" filter="url(#fy37uzm4ynkod)" height="49.0679" style="stroke:#A80036;stroke-width:1.0;" width="106.4857" x="416" y="430.102"/><rect fill="#FEFECE" height="10" style="stroke:#A80036;stroke-width:1.0;" width="15" x="502.4857" y="435.102"/><rect fill="#FEFECE" height="2" style="stroke:#A80036;stroke-width:1.0;" width="4" x="500.4857" y="437.102"/><rect fill="#FEFECE" height="2" style="stroke:#A80036;stroke-width:1.0;" width="4" x="500.4857" y="441.102"/><text fill="#000000" font-family="sans-serif" font-size="14" lengthAdjust="spacing" textLength="66.4857" x="431" y="465.0679">Use Cases</text></g><!--entity DTOs--><g id="elem_DTOs"><rect fill="#FEFECE" filter="url(#fy37uzm4ynkod)" height="49.0679" style="stroke:#A80036;stroke-width:1.0;" width="75.6439" x="305" y="430.102"/><rect fill="#FEFECE" height="10" style="stroke:#A80036;stroke-width:1.0;" width="15" x="360.6439" y="435.102"/><rect fill="#FEFECE" height="2" style="stroke:#A80036;stroke-width:1.0;" width="4" x="358.6439" y="437.102"/><rect fill="#FEFECE" height="2" style="stroke:#A80036;stroke-width:1.0;" width="4" x="358.6439" y="441.102"/><text fill="#000000" font-family="sans-serif" font-size="14" lengthAdjust="spacing" textLength="35.6439" x="320" y="465.0679">DTOs</text></g><!--entity Repositories--><g id="elem_Repositories"><rect fill="#FEFECE" filter="url(#fy37uzm4ynkod)" height="49.0679" style="stroke:#A80036;stroke-width:1.0;" width="121.5217" x="63" y="244.602"/><rect fill="#FEFECE" height="10" style="stroke:#A80036;stroke-width:1.0;" width="15" x="164.5217" y="249.602"/><rect fill="#FEFECE" height="2" style="stroke:#A80036;stroke-width:1.0;" width="4" x="162.5217" y="251.602"/><rect fill="#FEFECE" height="2" style="stroke:#A80036;stroke-width:1.0;" width="4" x="162.5217" y="255.602"/><text fill="#000000" font-family="sans-serif" font-size="14" lengthAdjust="spacing" textLength="81.5217" x="78" y="279.5679">Repositories</text></g><!--entity Controllers--><g id="elem_Controllers"><rect fill="#FEFECE" filter="url(#fy37uzm4ynkod)" height="49.0679" style="stroke:#A80036;stroke-width:1.0;" width="112.8837" x="376.5" y="244.602"/><rect fill="#FEFECE" height="10" style="stroke:#A80036;stroke-width:1.0;" width="15" x="469.3837" y="249.602"/><rect fill="#FEFECE" height="2" style="stroke:#A80036;stroke-width:1.0;" width="4" x="467.3837" y="251.602"/><rect fill="#FEFECE" height="2" style="stroke:#A80036;stroke-width:1.0;" width="4" x="467.3837" y="255.602"/><text fill="#000000" font-family="sans-serif" font-size="14" lengthAdjust="spacing" textLength="72.8837" x="391.5" y="279.5679">Controllers</text></g><!--entity Program--><g id="elem_Program"><rect fill="#FEFECE" filter="url(#fy37uzm4ynkod)" height="49.0679" style="stroke:#A80036;stroke-width:1.0;" width="98.0578" x="525" y="244.602"/><rect fill="#FEFECE" height="10" style="stroke:#A80036;stroke-width:1.0;" width="15" x="603.0578" y="249.602"/><rect fill="#FEFECE" height="2" style="stroke:#A80036;stroke-width:1.0;" width="4" x="601.0578" y="251.602"/><rect fill="#FEFECE" height="2" style="stroke:#A80036;stroke-width:1.0;" width="4" x="601.0578" y="255.602"/><text fill="#000000" font-family="sans-serif" font-size="14" lengthAdjust="spacing" textLength="58.0578" x="540" y="279.5679">Program</text></g><!--entity Integration Tests--><g id="elem_Integration Tests"><rect fill="#FEFECE" filter="url(#fy37uzm4ynkod)" height="49.0679" style="stroke:#A80036;stroke-width:1.0;" width="152.1676" x="350" y="44.602"/><rect fill="#FEFECE" height="10" style="stroke:#A80036;stroke-width:1.0;" width="15" x="482.1676" y="49.602"/><rect fill="#FEFECE" height="2" style="stroke:#A80036;stroke-width:1.0;" width="4" x="480.1676" y="51.602"/><rect fill="#FEFECE" height="2" style="stroke:#A80036;stroke-width:1.0;" width="4" x="480.1676" y="55.602"/><text fill="#000000" font-family="sans-serif" font-size="14" lengthAdjust="spacing" textLength="112.1676" x="365" y="79.5679">Integration Tests</text></g><!--link Use Cases to Entities--><g id="link_Use Cases_Entities"><path d="M440.7,479.232 C428.2,489.292 413.16,500.922 399,510.602 C354.96,540.712 307.2358,568.3797 270.7958,588.6097 " fill="none" id="Use Cases-to-Entities" style="stroke:#A80036;stroke-width:1.0;stroke-dasharray:7.0,7.0;"/><polygon fill="#A80036" points="265.55,591.522,275.3603,590.6508,269.9215,589.0951,271.4772,583.6564,265.55,591.522" style="stroke:#A80036;stroke-width:1.0;"/><text fill="#000000" font-family="sans-serif" font-size="13" lengthAdjust="spacing" textLength="21.593" x="386" y="533.499">use</text></g><!--link Controllers to Use Cases--><g id="link_Controllers_Use Cases"><path d="M437.81,293.742 C441.02,309.552 445.3,330.812 449,349.602 C454.43,377.202 459.3866,403.0681 463.4066,424.1581 " fill="none" id="Controllers-to-Use Cases" style="stroke:#A80036;stroke-width:1.0;"/><polygon fill="#A80036" points="464.53,430.052,466.7741,420.4622,463.5938,425.1404,458.9156,421.9601,464.53,430.052" style="stroke:#A80036;stroke-width:1.0;"/><text fill="#000000" font-family="sans-serif" font-size="13" lengthAdjust="spacing" textLength="20.241" x="453" y="364.499">call</text></g><!--link Controllers to DTOs--><g id="link_Controllers_DTOs"><path d="M389.17,293.742 C369.01,307.202 347.13,326.082 336,349.602 C323.92,375.122 327.5907,402.3608 333.5307,424.2808 " fill="none" id="Controllers-to-DTOs" style="stroke:#A80036;stroke-width:1.0;stroke-dasharray:7.0,7.0;"/><polygon fill="#A80036" points="335.1,430.072,336.6068,420.3391,333.7922,425.246,328.8853,422.4315,335.1,430.072" style="stroke:#A80036;stroke-width:1.0;"/><text fill="#000000" font-family="sans-serif" font-size="13" lengthAdjust="spacing" textLength="103.2331" x="337" y="364.499">send and receive</text></g><!--link Repositories to Entities--><g id="link_Repositories_Entities"><path d="M120.94,293.622 C116.16,337.832 110.2,435.622 139,510.602 C151.13,542.182 172.185,567.4817 191.675,587.0417 " fill="none" id="Repositories-to-Entities" style="stroke:#A80036;stroke-width:1.0;stroke-dasharray:7.0,7.0;"/><polygon fill="#A80036" points="195.91,591.292,192.3909,582.0933,192.3808,587.7501,186.724,587.74,195.91,591.292" style="stroke:#A80036;stroke-width:1.0;"/><text fill="#000000" font-family="sans-serif" font-size="13" lengthAdjust="spacing" textLength="21.593" x="140" y="459.999">use</text></g><!--link Repositories to DrivenPorts--><g id="link_Repositories_DrivenPorts"><path d="M136.87,293.712 C159.45,335.142 196.5457,403.2271 210.9457,429.6471 " fill="none" id="Repositories-to-DrivenPorts" style="stroke:#A80036;stroke-width:1.0;stroke-dasharray:7.0,7.0;"/><polygon fill="none" points="219.56,445.452,216.214,426.7757,205.6774,432.5186,219.56,445.452" style="stroke:#A80036;stroke-width:1.0;"/><text fill="#000000" font-family="sans-serif" font-size="13" lengthAdjust="spacing" textLength="66.4041" x="177" y="364.499">implement</text></g><!--link Integration Tests to Program--><g id="link_Integration Tests_Program"><path d="M493.66,93.602 C509.05,101.682 524.07,112.182 535,125.602 C563.26,160.302 570.7035,207.9265 572.8335,238.5365 " fill="none" id="Integration Tests-to-Program" style="stroke:#A80036;stroke-width:1.0;"/><polygon fill="#A80036" points="573.25,244.522,576.6156,235.266,572.9029,239.534,568.6349,235.8214,573.25,244.522" style="stroke:#A80036;stroke-width:1.0;"/><text fill="#000000" font-family="sans-serif" font-size="13" lengthAdjust="spacing" textLength="50.063" x="547" y="140.499">exercise</text></g><!--link Integration Tests to Controllers--><g id="link_Integration Tests_Controllers"><path d="M424.43,93.862 C423.86,103.682 423.28,115.182 423,125.602 C421.87,167.502 425.8855,210.2235 429.2255,238.4735 " fill="none" id="Integration Tests-to-Controllers" style="stroke:#A80036;stroke-width:1.0;stroke-dasharray:7.0,7.0;"/><polygon fill="#A80036" points="429.93,244.432,432.8456,235.0246,429.3429,239.4666,424.901,235.9639,429.93,244.432" style="stroke:#A80036;stroke-width:1.0;"/><text fill="#000000" font-family="sans-serif" font-size="13" lengthAdjust="spacing" textLength="106.2491" x="424" y="140.499">simulate API calls</text></g><!--link Integration Tests to DTOs--><g id="link_Integration Tests_DTOs"><path d="M382.1,93.642 C360.72,107.672 337.08,127.632 325,152.602 C279.52,246.622 313.9042,371.2297 332.1542,424.1597 " fill="none" id="Integration Tests-to-DTOs" style="stroke:#A80036;stroke-width:1.0;stroke-dasharray:7.0,7.0;"/><polygon fill="#A80036" points="334.11,429.832,334.9579,420.0197,332.4802,425.1051,327.3948,422.6274,334.11,429.832" style="stroke:#A80036;stroke-width:1.0;"/><text fill="#000000" font-family="sans-serif" font-size="13" lengthAdjust="spacing" textLength="33.761" x="326" y="274.499">verify</text></g><!--SRC=[TLEnRjim5Dpv5GzPd0wITmy6ZBY3Xw92uKo11vPwiebG944-9J7Q_7iV9KkXebI00DdlT7UyUrfTY7pShDVUI4jTQqhbsdMDthXhYvQAMijpaAs8pzf2S165y58zopF2tTwrKjix-2E0hwVlbZHfZ2Vnde5stXkj96at8RKb38rK2FkWNz1MBb0SE1uZmeECYQJ_lJ_-7FW2AfBsR9ZnO9iW8uLEKHTm99q4AmnHHqAhi3pO7zYwS1r1FUSlz2vgSa6FCkyBXT7WhfQUd-D2PLSTPgGFpb9mnZ3szF5l5LnABrEP28uOQQ9zIegCJ2b1F-aFlO8iFU1MqDOH-758NcHnGLbkimfW0rtgYXcg0oXfJ4onkndXzBQOsOUYsEPDC5SY-0JgzVfwU1xP64Y-EKJaIfDmrWFerXjC-nH1_kRgf4e68X-fqHPhjdOxqZhp9-PDVNt21URlDjygHatQoTJnWd0h1UvPbTFv1gywO8JEtn9cnynLYjLKtv18HdjQ3ETBzNawsmwsaTTDgUxXc-1Os0nTWDWcEmvNy8udSD_xvFfUCEZcohEw85Uar1lZNhd0vG8DofEF3U0R1gLJPb-0-t1d1NEhkksC9FpOeV-_Ecx2O53y0m00]--></g></svg>