<svg xmlns="http://www.w3.org/2000/svg" xmlns:xlink="http://www.w3.org/1999/xlink" contentStyleType="text/css" height="883px" preserveAspectRatio="none" style="width:822px;height:883px;background:#FFFFFF;" version="1.1" viewBox="0 0 822 883" width="822px" zoomAndPan="magnify"><defs><filter height="300%" id="fjdkflsb9fet7" width="300%" x="-1" y="-1"><feGaussianBlur result="blurOut" stdDeviation="2.0"/><feColorMatrix in="blurOut" result="blurOut2" type="matrix" values="0 0 0 0 0 0 0 0 0 0 0 0 0 0 0 0 0 0 .4 0"/><feOffset dx="4.0" dy="4.0" in="blurOut2" result="blurOut3"/><feBlend in="SourceGraphic" in2="blurOut3" mode="normal"/></filter></defs><g><!--cluster Domain Layer--><g id="cluster_Domain Layer"><rect fill="#FCFDB9" filter="url(#fjdkflsb9fet7)" height="173" style="stroke:#000000;stroke-width:1.5;" width="168" x="371.45" y="698.5"/><text fill="#000000" font-family="sans-serif" font-size="14" font-weight="bold" lengthAdjust="spacing" textLength="97.2996" x="406.8002" y="715.4659">Domain Layer</text></g><!--cluster Domain--><g id="cluster_Domain"><polygon fill="#FFFFFF" filter="url(#fjdkflsb9fet7)" points="395.45,744.5,456.1478,744.5,463.1478,769.5679,515.45,769.5679,515.45,847.5,395.45,847.5,395.45,744.5" style="stroke:#000000;stroke-width:1.5;"/><line style="stroke:#000000;stroke-width:1.5;" x1="395.45" x2="463.1478" y1="769.5679" y2="769.5679"/><text fill="#000000" font-family="sans-serif" font-size="14" font-weight="bold" lengthAdjust="spacing" textLength="54.6978" x="399.45" y="761.4659">Domain</text></g><!--cluster Application Layer--><g id="cluster_Application Layer"><rect fill="#FFA09C" filter="url(#fjdkflsb9fet7)" height="188" style="stroke:#000000;stroke-width:1.5;" width="424" x="59.45" y="459.5"/><text fill="#000000" font-family="sans-serif" font-size="14" font-weight="bold" lengthAdjust="spacing" textLength="122.3875" x="210.2562" y="476.4659">Application Layer</text></g><!--cluster Application--><g id="cluster_Application"><polygon fill="#FFFFFF" filter="url(#fjdkflsb9fet7)" points="83.45,505.5,169.2357,505.5,176.2357,530.5679,459.45,530.5679,459.45,623.5,83.45,623.5,83.45,505.5" style="stroke:#000000;stroke-width:1.5;"/><line style="stroke:#000000;stroke-width:1.5;" x1="83.45" x2="176.2357" y1="530.5679" y2="530.5679"/><text fill="#000000" font-family="sans-serif" font-size="14" font-weight="bold" lengthAdjust="spacing" textLength="79.7857" x="87.45" y="522.4659">Application</text></g><!--cluster Interface Adapters Layer--><g id="cluster_Interface Adapters Layer"><rect fill="#A2FDBA" filter="url(#fjdkflsb9fet7)" height="173" style="stroke:#000000;stroke-width:1.5;" width="327" x="52.45" y="226"/><text fill="#000000" font-family="sans-serif" font-size="14" font-weight="bold" lengthAdjust="spacing" textLength="174.4393" x="128.7303" y="242.9659">Interface Adapters Layer</text></g><!--cluster API--><g id="cluster_API"><polygon fill="#FFFFFF" filter="url(#fjdkflsb9fet7)" points="76.45,272,106.3479,272,113.3479,297.0679,355.45,297.0679,355.45,375,76.45,375,76.45,272" style="stroke:#000000;stroke-width:1.5;"/><line style="stroke:#000000;stroke-width:1.5;" x1="76.45" x2="113.3479" y1="297.0679" y2="297.0679"/><text fill="#000000" font-family="sans-serif" font-size="14" font-weight="bold" lengthAdjust="spacing" textLength="23.8979" x="80.45" y="288.9659">API</text></g><!--cluster Infrastructure Layer--><g id="cluster_Infrastructure Layer"><rect fill="#A7D7FD" filter="url(#fjdkflsb9fet7)" height="401.5" style="stroke:#000000;stroke-width:1.5;" width="399" x="411.45" y="7"/><text fill="#000000" font-family="sans-serif" font-size="14" font-weight="bold" lengthAdjust="spacing" textLength="143.1635" x="539.3683" y="23.9659">Infrastructure Layer</text></g><!--cluster Persistence.InMemory--><g id="cluster_Persistence.InMemory"><polygon fill="#FFFFFF" filter="url(#fjdkflsb9fet7)" points="613.45,53,776.9214,53,783.9214,78.0679,786.45,78.0679,786.45,175,613.45,175,613.45,53" style="stroke:#000000;stroke-width:1.5;"/><line style="stroke:#000000;stroke-width:1.5;" x1="613.45" x2="783.9214" y1="78.0679" y2="78.0679"/><text fill="#000000" font-family="sans-serif" font-size="14" font-weight="bold" lengthAdjust="spacing" textLength="157.4714" x="617.45" y="69.9659">Persistence.InMemory</text></g><!--cluster Persistence.EFCore--><g id="cluster_Persistence.EFCore"><polygon fill="#FFFFFF" filter="url(#fjdkflsb9fet7)" points="435.45,53,573.8055,53,580.8055,78.0679,589.45,78.0679,589.45,175,435.45,175,435.45,53" style="stroke:#000000;stroke-width:1.5;"/><line style="stroke:#000000;stroke-width:1.5;" x1="435.45" x2="580.8055" y1="78.0679" y2="78.0679"/><text fill="#000000" font-family="sans-serif" font-size="14" font-weight="bold" lengthAdjust="spacing" textLength="132.3555" x="439.45" y="69.9659">Persistence.EFCore</text></g><!--cluster Persistence.Proxy--><g id="cluster_Persistence.Proxy"><polygon fill="#FFFFFF" filter="url(#fjdkflsb9fet7)" points="450.45,262.5,580.9375,262.5,587.9375,287.5679,604.45,287.5679,604.45,384.5,450.45,384.5,450.45,262.5" style="stroke:#000000;stroke-width:1.5;"/><line style="stroke:#000000;stroke-width:1.5;" x1="450.45" x2="587.9375" y1="287.5679" y2="287.5679"/><text fill="#000000" font-family="sans-serif" font-size="14" font-weight="bold" lengthAdjust="spacing" textLength="124.4875" x="454.45" y="279.4659">Persistence.Proxy</text></g><!--cluster Tests--><g id="cluster_Tests"><polygon fill="#FFFFFF" filter="url(#fjdkflsb9fet7)" points="49.45,62.5,91.8219,62.5,98.8219,87.5679,233.45,87.5679,233.45,165.5,49.45,165.5,49.45,62.5" style="stroke:#000000;stroke-width:1.5;"/><line style="stroke:#000000;stroke-width:1.5;" x1="49.45" x2="98.8219" y1="87.5679" y2="87.5679"/><text fill="#000000" font-family="sans-serif" font-size="14" font-weight="bold" lengthAdjust="spacing" textLength="36.3719" x="53.45" y="79.4659">Tests</text></g><!--entity Entities--><g id="elem_Entities"><rect fill="#FEFECE" filter="url(#fjdkflsb9fet7)" height="49.0679" style="stroke:#A80036;stroke-width:1.0;" width="88.3698" x="411.45" y="782.5"/><rect fill="#FEFECE" height="10" style="stroke:#A80036;stroke-width:1.0;" width="15" x="479.8198" y="787.5"/><rect fill="#FEFECE" height="2" style="stroke:#A80036;stroke-width:1.0;" width="4" x="477.8198" y="789.5"/><rect fill="#FEFECE" height="2" style="stroke:#A80036;stroke-width:1.0;" width="4" x="477.8198" y="793.5"/><text fill="#000000" font-family="sans-serif" font-size="14" lengthAdjust="spacing" textLength="48.3698" x="426.45" y="817.4659">Entities</text></g><!--entity DrivenPorts--><g id="elem_DrivenPorts"><ellipse cx="397.45" cy="575.5" fill="#FEFECE" filter="url(#fjdkflsb9fet7)" rx="8" ry="8" style="stroke:#A80036;stroke-width:1.0;"/><text fill="#000000" font-family="sans-serif" font-size="14" lengthAdjust="spacing" textLength="77.7557" x="358.5721" y="607.4659">DrivenPorts</text></g><!--entity Use Cases--><g id="elem_Use Cases"><rect fill="#FEFECE" filter="url(#fjdkflsb9fet7)" height="49.0679" style="stroke:#A80036;stroke-width:1.0;" width="106.4857" x="210.45" y="551"/><rect fill="#FEFECE" height="10" style="stroke:#A80036;stroke-width:1.0;" width="15" x="296.9357" y="556"/><rect fill="#FEFECE" height="2" style="stroke:#A80036;stroke-width:1.0;" width="4" x="294.9357" y="558"/><rect fill="#FEFECE" height="2" style="stroke:#A80036;stroke-width:1.0;" width="4" x="294.9357" y="562"/><text fill="#000000" font-family="sans-serif" font-size="14" lengthAdjust="spacing" textLength="66.4857" x="225.45" y="585.9659">Use Cases</text></g><!--entity DTOs--><g id="elem_DTOs"><rect fill="#FEFECE" filter="url(#fjdkflsb9fet7)" height="49.0679" style="stroke:#A80036;stroke-width:1.0;" width="75.6439" x="99.45" y="551"/><rect fill="#FEFECE" height="10" style="stroke:#A80036;stroke-width:1.0;" width="15" x="155.0939" y="556"/><rect fill="#FEFECE" height="2" style="stroke:#A80036;stroke-width:1.0;" width="4" x="153.0939" y="558"/><rect fill="#FEFECE" height="2" style="stroke:#A80036;stroke-width:1.0;" width="4" x="153.0939" y="562"/><text fill="#000000" font-family="sans-serif" font-size="14" lengthAdjust="spacing" textLength="35.6439" x="114.45" y="585.9659">DTOs</text></g><!--entity Controllers--><g id="elem_Controllers"><rect fill="#FEFECE" filter="url(#fjdkflsb9fet7)" height="49.0679" style="stroke:#A80036;stroke-width:1.0;" width="112.8837" x="225.95" y="310"/><rect fill="#FEFECE" height="10" style="stroke:#A80036;stroke-width:1.0;" width="15" x="318.8337" y="315"/><rect fill="#FEFECE" height="2" style="stroke:#A80036;stroke-width:1.0;" width="4" x="316.8337" y="317"/><rect fill="#FEFECE" height="2" style="stroke:#A80036;stroke-width:1.0;" width="4" x="316.8337" y="321"/><text fill="#000000" font-family="sans-serif" font-size="14" lengthAdjust="spacing" textLength="72.8837" x="240.95" y="344.9659">Controllers</text></g><!--entity Program--><g id="elem_Program"><rect fill="#FEFECE" filter="url(#fjdkflsb9fet7)" height="49.0679" style="stroke:#A80036;stroke-width:1.0;" width="98.0578" x="92.45" y="310"/><rect fill="#FEFECE" height="10" style="stroke:#A80036;stroke-width:1.0;" width="15" x="170.5078" y="315"/><rect fill="#FEFECE" height="2" style="stroke:#A80036;stroke-width:1.0;" width="4" x="168.5078" y="317"/><rect fill="#FEFECE" height="2" style="stroke:#A80036;stroke-width:1.0;" width="4" x="168.5078" y="321"/><text fill="#000000" font-family="sans-serif" font-size="14" lengthAdjust="spacing" textLength="58.0578" x="107.45" y="344.9659">Program</text></g><!--entity InMemory\nRepositories--><g id="elem_InMemory\nRepositories"><rect fill="#FEFECE" filter="url(#fjdkflsb9fet7)" height="68.1358" style="stroke:#A80036;stroke-width:1.0;" width="121.5217" x="629.45" y="91"/><rect fill="#FEFECE" height="10" style="stroke:#A80036;stroke-width:1.0;" width="15" x="730.9717" y="96"/><rect fill="#FEFECE" height="2" style="stroke:#A80036;stroke-width:1.0;" width="4" x="728.9717" y="98"/><rect fill="#FEFECE" height="2" style="stroke:#A80036;stroke-width:1.0;" width="4" x="728.9717" y="102"/><text fill="#000000" font-family="sans-serif" font-size="14" lengthAdjust="spacing" textLength="68.4737" x="644.45" y="125.9659">InMemory</text><text fill="#000000" font-family="sans-serif" font-size="14" lengthAdjust="spacing" textLength="81.5217" x="644.45" y="145.0339">Repositories</text></g><!--entity EFCore\nRepositories--><g id="elem_EFCore\nRepositories"><rect fill="#FEFECE" filter="url(#fjdkflsb9fet7)" height="68.1358" style="stroke:#A80036;stroke-width:1.0;" width="121.5217" x="451.45" y="91"/><rect fill="#FEFECE" height="10" style="stroke:#A80036;stroke-width:1.0;" width="15" x="552.9717" y="96"/><rect fill="#FEFECE" height="2" style="stroke:#A80036;stroke-width:1.0;" width="4" x="550.9717" y="98"/><rect fill="#FEFECE" height="2" style="stroke:#A80036;stroke-width:1.0;" width="4" x="550.9717" y="102"/><text fill="#000000" font-family="sans-serif" font-size="14" lengthAdjust="spacing" textLength="46.0458" x="466.45" y="125.9659">EFCore</text><text fill="#000000" font-family="sans-serif" font-size="14" lengthAdjust="spacing" textLength="81.5217" x="466.45" y="145.0339">Repositories</text></g><!--entity Proxy\nRepositories--><g id="elem_Proxy\nRepositories"><rect fill="#FEFECE" filter="url(#fjdkflsb9fet7)" height="68.1358" style="stroke:#A80036;stroke-width:1.0;" width="121.5217" x="466.45" y="300.5"/><rect fill="#FEFECE" height="10" style="stroke:#A80036;stroke-width:1.0;" width="15" x="567.9717" y="305.5"/><rect fill="#FEFECE" height="2" style="stroke:#A80036;stroke-width:1.0;" width="4" x="565.9717" y="307.5"/><rect fill="#FEFECE" height="2" style="stroke:#A80036;stroke-width:1.0;" width="4" x="565.9717" y="311.5"/><text fill="#000000" font-family="sans-serif" font-size="14" lengthAdjust="spacing" textLength="37.2679" x="481.45" y="335.4659">Proxy</text><text fill="#000000" font-family="sans-serif" font-size="14" lengthAdjust="spacing" textLength="81.5217" x="481.45" y="354.5339">Repositories</text></g><!--entity Integration Tests--><g id="elem_Integration Tests"><rect fill="#FEFECE" filter="url(#fjdkflsb9fet7)" height="49.0679" style="stroke:#A80036;stroke-width:1.0;" width="152.1676" x="65.45" y="100.5"/><rect fill="#FEFECE" height="10" style="stroke:#A80036;stroke-width:1.0;" width="15" x="197.6176" y="105.5"/><rect fill="#FEFECE" height="2" style="stroke:#A80036;stroke-width:1.0;" width="4" x="195.6176" y="107.5"/><rect fill="#FEFECE" height="2" style="stroke:#A80036;stroke-width:1.0;" width="4" x="195.6176" y="111.5"/><text fill="#000000" font-family="sans-serif" font-size="14" lengthAdjust="spacing" textLength="112.1676" x="80.45" y="135.4659">Integration Tests</text></g><!--link Use Cases to Entities--><g id="link_Use Cases_Entities"><path d="M283.27,600.2 C320.16,644.29 395.0802,733.838 431.8802,777.828 " fill="none" id="Use Cases-to-Entities" style="stroke:#A80036;stroke-width:1.0;stroke-dasharray:7.0,7.0;"/><polygon fill="#A80036" points="435.73,782.43,433.0233,772.9604,432.5218,778.595,426.8872,778.0935,435.73,782.43" style="stroke:#A80036;stroke-width:1.0;"/><text fill="#000000" font-family="sans-serif" font-size="13" lengthAdjust="spacing" textLength="21.593" x="348.45" y="678.397">use</text></g><!--link Controllers to Use Cases--><g id="link_Controllers_Use Cases"><path d="M280.56,359.29 C276.92,405.1 269.446,499.0889 265.806,544.8289 " fill="none" id="Controllers-to-Use Cases" style="stroke:#A80036;stroke-width:1.0;"/><polygon fill="#A80036" points="265.33,550.81,270.0314,542.1557,265.7266,545.8258,262.0566,541.521,265.33,550.81" style="stroke:#A80036;stroke-width:1.0;"/><text fill="#000000" font-family="sans-serif" font-size="13" lengthAdjust="spacing" textLength="20.241" x="275.45" y="439.397">call</text></g><!--link Controllers to DTOs--><g id="link_Controllers_DTOs"><path d="M267.54,359.02 C254.36,377.73 233.38,402.95 208.45,416.5 C189.45,426.83 175.64,409.11 160.45,424.5 C127.41,457.97 128.5134,511.7366 132.6634,544.8266 " fill="none" id="Controllers-to-DTOs" style="stroke:#A80036;stroke-width:1.0;stroke-dasharray:7.0,7.0;"/><polygon fill="#A80036" points="133.41,550.78,136.2589,541.3522,132.7878,545.8189,128.3211,542.3477,133.41,550.78" style="stroke:#A80036;stroke-width:1.0;"/><text fill="#000000" font-family="sans-serif" font-size="13" lengthAdjust="spacing" textLength="103.2331" x="161.45" y="439.397">send and receive</text></g><!--link Proxy\nRepositories to Entities--><g id="link_Proxy\nRepositories_Entities"><path d="M523.01,368.61 C520.1,389.99 516.16,418.41 512.45,443.5 C493.51,571.43 469.7251,718.4881 460.2951,776.3481 " fill="none" id="Proxy\nRepositories-to-Entities" style="stroke:#A80036;stroke-width:1.0;stroke-dasharray:7.0,7.0;"/><polygon fill="#A80036" points="459.33,782.27,464.7256,774.0306,460.1343,777.3351,456.8298,772.7438,459.33,782.27" style="stroke:#A80036;stroke-width:1.0;"/><text fill="#000000" font-family="sans-serif" font-size="13" lengthAdjust="spacing" textLength="21.593" x="511.45" y="580.897">use</text></g><!--link Proxy\nRepositories to DrivenPorts--><g id="link_Proxy\nRepositories_DrivenPorts"><path d="M486.94,368.86 C470.46,384.28 452.5,403.77 440.45,424.5 C411.86,473.68 403.4566,525.247 400.5566,548.617 " fill="none" id="Proxy\nRepositories-to-DrivenPorts" style="stroke:#A80036;stroke-width:1.0;stroke-dasharray:7.0,7.0;"/><polygon fill="none" points="398.34,566.48,406.511,549.3559,394.6023,547.8781,398.34,566.48" style="stroke:#A80036;stroke-width:1.0;"/><text fill="#000000" font-family="sans-serif" font-size="13" lengthAdjust="spacing" textLength="66.4041" x="441.45" y="439.397">implement</text></g><!--reverse link InMemory\nRepositories to Proxy\nRepositories--><g id="link_InMemory\nRepositories_Proxy\nRepositories"><path d="M660.5533,164.0581 C630.1333,202.7781 583.96,261.56 553.57,300.24 " fill="none" id="InMemory\nRepositories-backto-Proxy\nRepositories" style="stroke:#A80036;stroke-width:1.0;"/><polygon fill="#A80036" points="664.26,159.34,655.5545,163.946,661.1711,163.2717,661.8453,168.8883,664.26,159.34" style="stroke:#A80036;stroke-width:1.0;"/><text fill="#000000" font-family="sans-serif" font-size="13" lengthAdjust="spacing" textLength="72.6051" x="638.45" y="205.897">delegate on</text></g><!--reverse link EFCore\nRepositories to Proxy\nRepositories--><g id="link_EFCore\nRepositories_Proxy\nRepositories"><path d="M515.2928,165.3244 C518.0928,204.0444 522.25,261.56 525.04,300.24 " fill="none" id="EFCore\nRepositories-backto-Proxy\nRepositories" style="stroke:#A80036;stroke-width:1.0;"/><polygon fill="#A80036" points="514.86,159.34,511.5195,168.6051,515.2206,164.327,519.4987,168.0281,514.86,159.34" style="stroke:#A80036;stroke-width:1.0;"/><text fill="#000000" font-family="sans-serif" font-size="13" lengthAdjust="spacing" textLength="72.6051" x="518.45" y="205.897">delegate on</text></g><!--link Integration Tests to Program--><g id="link_Integration Tests_Program"><path d="M141.45,149.8 C141.45,189.83 141.45,264.14 141.45,303.97 " fill="none" id="Integration Tests-to-Program" style="stroke:#A80036;stroke-width:1.0;"/><polygon fill="#A80036" points="141.45,309.97,145.45,300.97,141.45,304.97,137.45,300.97,141.45,309.97" style="stroke:#A80036;stroke-width:1.0;"/><text fill="#000000" font-family="sans-serif" font-size="13" lengthAdjust="spacing" textLength="50.063" x="142.45" y="205.897">exercise</text></g><!--link Integration Tests to Controllers--><g id="link_Integration Tests_Controllers"><path d="M165.63,149.55 C177.17,161.42 190.76,176.37 201.45,191 C230.16,230.29 253.9967,275.2935 268.4267,304.4235 " fill="none" id="Integration Tests-to-Controllers" style="stroke:#A80036;stroke-width:1.0;stroke-dasharray:7.0,7.0;"/><polygon fill="#A80036" points="271.09,309.8,270.6793,299.9597,268.8706,305.3196,263.5107,303.5108,271.09,309.8" style="stroke:#A80036;stroke-width:1.0;"/><text fill="#000000" font-family="sans-serif" font-size="13" lengthAdjust="spacing" textLength="106.2491" x="214.45" y="205.897">simulate API calls</text></g><!--link Integration Tests to DTOs--><g id="link_Integration Tests_DTOs"><path d="M102.85,149.59 C80.36,165.74 54.01,189.38 41.45,218 C6,298.79 17.66,331.54 41.45,416.5 C56.16,469.04 89.9121,516.8026 113.4521,546.1026 " fill="none" id="Integration Tests-to-DTOs" style="stroke:#A80036;stroke-width:1.0;stroke-dasharray:7.0,7.0;"/><polygon fill="#A80036" points="117.21,550.78,114.6914,541.2586,114.0784,546.8822,108.4549,546.2691,117.21,550.78" style="stroke:#A80036;stroke-width:1.0;"/><text fill="#000000" font-family="sans-serif" font-size="13" lengthAdjust="spacing" textLength="33.761" x="42.45" y="339.897">verify</text></g><!--SRC=[bLHDRzim3BtxLn3f8Tt1oR1BqHm2j4a71DYmOCXENGwgJ2T2PKcGv2R6rly-oavSsOaF2n10uCVZ8_deyTvxusRJgP5C-RAG4wwBQOP6wgf0vTDCi9rbHU9UXGAh7IRrqp0oWc7ybUqG_YG0Z_JUMLsgRA6bjd3O2u_9Uv9Ov9wfdKGOBNN12EORgz2Eu2RdUVPoNsT3YtKA6ftCuVVyfBpm0jssDhttK1-CaO8pBtG4dRFFzxmF7KN6-49vj3dZ24ihtb2jjVNke_elXx1Wxbo-jYqtFmROh5gmXumPUhkM5Fj2_R8BKkjLfzc5LjvgAIapAhYsEknXg6PkcVEsvBwq-57lBhlBitwzDG4Bvr5ndApKTooqhJe4piRVwYSQxOJNDfhz8DRJruMs62CrkwlD_ub5tHwhFjHv3iS1PZIJ5co3phipm7FO2KslLaZjsORWCSJA8SsZoXpGir5W4YqU9fDv94EOGHakWH3MA-1CIXT4f3k0RNRIMIcawJpM5645W5vGNQyM6VaT4GD6Vrevaa13uMXQ80eZCLoh0_P2Cc0y473KKYuKPaJjrD8qufTS7UNrHeT2_yxZYw7Wbib0Ibg6vWS4HlaPIjmnZp38hq6uAgfUFWrfiqSu7GxSqXHeMv_W82mwACrfupH1Ifuau_R4cWr5ZMqld5tvzRsT2oOQiVnya5_pnQ4r4Hc_1qyqQMQs0gF90xSrJvBJ6rgHL-JBKg_Je89SwWC9wbBGJUMMnmpmY9QBiBmhmVMMEu8ZbOcYb65shQQ7Ky_AR0Wc_m00]--></g></svg>