<svg xmlns="http://www.w3.org/2000/svg" xmlns:xlink="http://www.w3.org/1999/xlink" contentStyleType="text/css" height="474px" preserveAspectRatio="none" style="width:291px;height:474px;background:#FFFFFF;" version="1.1" viewBox="0 0 291 474" width="291px" zoomAndPan="magnify"><defs><filter height="300%" id="f72jqhtbmmrot" width="300%" x="-1" y="-1"><feGaussianBlur result="blurOut" stdDeviation="2.0"/><feColorMatrix in="blurOut" result="blurOut2" type="matrix" values="0 0 0 0 0 0 0 0 0 0 0 0 0 0 0 0 0 0 .4 0"/><feOffset dx="4.0" dy="4.0" in="blurOut2" result="blurOut3"/><feBlend in="SourceGraphic" in2="blurOut3" mode="normal"/></filter></defs><g><!--class Board--><g id="elem_Board"><rect codeLine="13" fill="#FEFECE" filter="url(#f72jqhtbmmrot)" height="56.1358" id="Board" style="stroke:#A80036;stroke-width:1.0;" width="118.4276" x="7" y="115"/><text fill="#000000" font-family="sans-serif" font-size="14" lengthAdjust="spacing" textLength="39.8159" x="46.3059" y="134.9659">Board</text><line style="stroke:#A80036;stroke-width:1.0;" x1="8" x2="124.4276" y1="144.0679" y2="144.0679"/><text fill="#000000" font-family="sans-serif" font-size="14" lengthAdjust="spacing" textLength="79.2957" x="13" y="163.0339">BoardName</text></g><!--class Column--><g id="elem_Column"><rect codeLine="17" fill="#FEFECE" filter="url(#f72jqhtbmmrot)" height="56.1358" id="Column" style="stroke:#A80036;stroke-width:1.0;" width="118.4276" x="92" y="250"/><text fill="#000000" font-family="sans-serif" font-size="14" lengthAdjust="spacing" textLength="51.3238" x="125.5519" y="269.9659">Column</text><line style="stroke:#A80036;stroke-width:1.0;" x1="93" x2="209.4276" y1="279.0679" y2="279.0679"/><text fill="#000000" font-family="sans-serif" font-size="14" lengthAdjust="spacing" textLength="90.8036" x="98" y="298.0339">ColumnName</text></g><!--class Card--><g id="elem_Card"><rect codeLine="21" fill="#FEFECE" filter="url(#f72jqhtbmmrot)" height="75.2038" id="Card" style="stroke:#A80036;stroke-width:1.0;" width="118.4276" x="159" y="385"/><text fill="#000000" font-family="sans-serif" font-size="14" lengthAdjust="spacing" textLength="31.0939" x="202.6669" y="404.9659">Card</text><line style="stroke:#A80036;stroke-width:1.0;" x1="160" x2="276.4276" y1="414.0679" y2="414.0679"/><text fill="#000000" font-family="sans-serif" font-size="14" lengthAdjust="spacing" textLength="59.0518" x="165" y="433.0339">CardTitle</text><text fill="#000000" font-family="sans-serif" font-size="14" lengthAdjust="spacing" textLength="106.4276" x="165" y="452.1018">CardDescription</text></g><!--class User--><g id="elem_User"><rect codeLine="26" fill="#FEFECE" filter="url(#f72jqhtbmmrot)" height="29.0679" id="User" style="stroke:#A80036;stroke-width:1.0;" width="118.4276" x="136" y="7"/><text fill="#000000" font-family="sans-serif" font-size="14" lengthAdjust="spacing" textLength="30.6179" x="179.9049" y="26.9659">User</text></g><!--reverse link Board to Column--><g id="link_Board_Column"><path codeLine="35" d="M89.8699,181.3529 C104.5299,204.3029 118.96,226.86 133.62,249.8 " fill="none" id="Board-backto-Column" style="stroke:#A80036;stroke-width:1.0;"/><polygon fill="#A80036" points="83.41,171.24,83.269,178.4497,89.8699,181.3529,90.0109,174.1431,83.41,171.24" style="stroke:#A80036;stroke-width:1.0;"/><text fill="#000000" font-family="sans-serif" font-size="13" lengthAdjust="spacing" textLength="7.163" x="121.7609" y="238.2761">*</text></g><!--reverse link Column to Card--><g id="link_Column_Card"><path codeLine="36" d="M142.5481,317.9178 C140.2181,332.9178 141.44,339.71 148,355 C152.7,365.94 160.17,375.92 168.52,384.64 " fill="none" id="Column-backto-Card" style="stroke:#A80036;stroke-width:1.0;"/><polygon fill="none" points="144.39,306.06,139.5164,311.3749,142.5481,317.9178,147.4216,312.6029,144.39,306.06" style="stroke:#A80036;stroke-width:1.0;"/><polygon fill="#000000" points="151.1863,341.1936,151.7286,350.6887,157.2061,348.5565,151.1863,341.1936" style="stroke:#000000;stroke-width:1.0;"/><text fill="#000000" font-family="sans-serif" font-size="13" lengthAdjust="spacing" textLength="96.1351" x="162" y="350.897">Moves between</text><text fill="#000000" font-family="sans-serif" font-size="13" lengthAdjust="spacing" textLength="7.163" x="152.0594" y="373.3239">*</text></g><!--link User to Board--><g id="link_User_Board"><path codeLine="38" d="M172.42,36.12 C159.94,44.12 144.48,54.83 132,66 C115.46,80.8 102.8628,94.9546 90.5628,110.1646 " fill="none" id="User-to-Board" style="stroke:#A80036;stroke-width:1.0;"/><polygon fill="#A80036" points="86.79,114.83,95.5595,110.3471,89.934,110.9422,89.3389,105.3167,86.79,114.83" style="stroke:#A80036;stroke-width:1.0;"/><text fill="#000000" font-family="sans-serif" font-size="13" lengthAdjust="spacing" textLength="35.295" x="133" y="80.897">CRUD</text></g><!--link User to Column--><g id="link_User_Column"><path codeLine="39" d="M192.63,36.18 C185.65,76.55 166.0715,189.7976 156.7315,243.8576 " fill="none" id="User-to-Column" style="stroke:#A80036;stroke-width:1.0;"/><polygon fill="#A80036" points="155.71,249.77,161.1838,241.5824,156.5612,244.843,153.3006,240.2204,155.71,249.77" style="stroke:#A80036;stroke-width:1.0;"/><text fill="#000000" font-family="sans-serif" font-size="13" lengthAdjust="spacing" textLength="35.295" x="179" y="148.397">CRUD</text></g><!--link User to Card--><g id="link_User_Card"><path codeLine="40" d="M200.44,36.08 C203.74,44.59 207.9,55.84 211,66 C217.55,87.44 218.33,93.07 223,115 C243.77,212.63 254.08,236.58 263,336 C263.76,344.41 265.47,346.93 263,355 C259.81,365.4 257.6651,370.6027 251.6651,379.8127 " fill="none" id="User-to-Card" style="stroke:#A80036;stroke-width:1.0;"/><polygon fill="#A80036" points="248.39,384.84,256.6542,379.4825,251.1193,380.6506,249.9511,375.1157,248.39,384.84" style="stroke:#A80036;stroke-width:1.0;"/><text fill="#000000" font-family="sans-serif" font-size="13" lengthAdjust="spacing" textLength="35.295" x="247" y="215.897">CRUD</text></g><!--SRC=[PK_1JiCm3BtxAwnTAbNAAguJse7kmW646DFEMMlMQ4aJ9Ive0lwTjCcw8Noot_DxVWudrQEtWQ1JBI4PnsSqP0xaGu8QvHjD4EAYaruQt4f3jPOXx5NB7R8V28ehhLLFV7Q4rdDdeUYONLXLbTEovy7ePMDDrOnwqIfvZ1Ae2fW0t5j_kcaVcKmUjooFbFkNGMiegZmzMEbR-0ACDVNFCH_yPBQsUZ1zfjFmbx-An_PDSVprCcqeD5uvLhQV1Rj0VWmydK8nEF6zJhdh6s2EZv2EpaHw14OUIw7fdGKkxfRBSf6fMIcyEdOirXcF3wURfOYAk9vVo_xsWiQL5JxP3mfu8Fuawl4UO8oD8febZnNMhxlD5Sqc_-2RtLy0]--></g></svg>