<svg xmlns="http://www.w3.org/2000/svg" xmlns:xlink="http://www.w3.org/1999/xlink" contentStyleType="text/css" height="608px" preserveAspectRatio="none" style="width:634px;height:608px;background:#FFFFFF;" version="1.1" viewBox="0 0 634 608" width="634px" zoomAndPan="magnify"><defs><filter height="300%" id="f13gsxlyt1if6i" width="300%" x="-1" y="-1"><feGaussianBlur result="blurOut" stdDeviation="2.0"/><feColorMatrix in="blurOut" result="blurOut2" type="matrix" values="0 0 0 0 0 0 0 0 0 0 0 0 0 0 0 0 0 0 .4 0"/><feOffset dx="4.0" dy="4.0" in="blurOut2" result="blurOut3"/><feBlend in="SourceGraphic" in2="blurOut3" mode="normal"/></filter></defs><g><!--class IRepository--><g id="elem_IRepository"><rect codeLine="4" fill="#FEFECE" filter="url(#f13gsxlyt1if6i)" height="124.2717" id="IRepository" style="stroke:#A80036;stroke-width:1.0;" width="101.8317" x="159.5" y="7"/><ellipse cx="174.5" cy="23" fill="#B4A7E5" rx="11" ry="11" style="stroke:#A80036;stroke-width:1.0;"/><path d="M170.4219,18.7656 L170.4219,16.6094 L177.8125,16.6094 L177.8125,18.7656 L175.3438,18.7656 L175.3438,26.8438 L177.8125,26.8438 L177.8125,29 L170.4219,29 L170.4219,26.8438 L172.8906,26.8438 L172.8906,18.7656 L170.4219,18.7656 Z " fill="#000000"/><text fill="#000000" font-family="sans-serif" font-size="14" font-style="italic" lengthAdjust="spacing" textLength="69.8317" x="188.5" y="28.432">IRepository</text><line style="stroke:#A80036;stroke-width:1.0;" x1="160.5" x2="260.3317" y1="39" y2="39"/><line style="stroke:#A80036;stroke-width:1.0;" x1="160.5" x2="260.3317" y1="47" y2="47"/><ellipse cx="170.5" cy="62.034" fill="#84BE84" rx="3" ry="3" style="stroke:#038048;stroke-width:1.0;"/><text fill="#000000" font-family="sans-serif" font-size="14" lengthAdjust="spacing" textLength="51.7298" x="179.5" y="65.9659">Create()</text><ellipse cx="170.5" cy="81.1019" fill="#84BE84" rx="3" ry="3" style="stroke:#038048;stroke-width:1.0;"/><text fill="#000000" font-family="sans-serif" font-size="14" lengthAdjust="spacing" textLength="31.5419" x="179.5" y="85.0339">Get()</text><ellipse cx="170.5" cy="100.1698" fill="#84BE84" rx="3" ry="3" style="stroke:#038048;stroke-width:1.0;"/><text fill="#000000" font-family="sans-serif" font-size="14" lengthAdjust="spacing" textLength="56.6578" x="179.5" y="104.1018">Update()</text><ellipse cx="170.5" cy="119.2377" fill="#84BE84" rx="3" ry="3" style="stroke:#038048;stroke-width:1.0;"/><text fill="#000000" font-family="sans-serif" font-size="14" lengthAdjust="spacing" textLength="50.9738" x="179.5" y="123.1697">Delete()</text></g><!--class InMemoryRepository--><g id="elem_InMemoryRepository"><rect codeLine="11" fill="#FEFECE" filter="url(#f13gsxlyt1if6i)" height="143.3396" id="InMemoryRepository" style="stroke:#A80036;stroke-width:1.0;" width="173.3214" x="203" y="191"/><ellipse cx="219.08" cy="207" fill="#ADD1B2" rx="11" ry="11" style="stroke:#A80036;stroke-width:1.0;"/><path d="M222.0487,212.6406 Q221.4706,212.9375 220.83,213.0781 Q220.1894,213.2344 219.4862,213.2344 Q216.9862,213.2344 215.6581,211.5938 Q214.3456,209.9375 214.3456,206.8125 Q214.3456,203.6875 215.6581,202.0313 Q216.9862,200.375 219.4862,200.375 Q220.1894,200.375 220.83,200.5313 Q221.4862,200.6875 222.0487,200.9844 L222.0487,203.7031 Q221.4237,203.125 220.83,202.8594 Q220.2362,202.5781 219.6112,202.5781 Q218.2675,202.5781 217.58,203.6563 Q216.8925,204.7188 216.8925,206.8125 Q216.8925,208.9063 217.58,209.9844 Q218.2675,211.0469 219.6112,211.0469 Q220.2362,211.0469 220.83,210.7813 Q221.4237,210.5 222.0487,209.9219 L222.0487,212.6406 Z " fill="#000000"/><text fill="#000000" font-family="sans-serif" font-size="14" lengthAdjust="spacing" textLength="138.9215" x="233.32" y="212.432">InMemoryRepository</text><line style="stroke:#A80036;stroke-width:1.0;" x1="204" x2="375.3214" y1="223" y2="223"/><line style="stroke:#A80036;stroke-width:1.0;" x1="204" x2="375.3214" y1="231" y2="231"/><ellipse cx="214" cy="246.034" fill="#84BE84" rx="3" ry="3" style="stroke:#038048;stroke-width:1.0;"/><text fill="#000000" font-family="sans-serif" font-size="14" lengthAdjust="spacing" textLength="147.3214" x="223" y="249.9659">InMemoryRepository()</text><ellipse cx="214" cy="265.1019" fill="#84BE84" rx="3" ry="3" style="stroke:#038048;stroke-width:1.0;"/><text fill="#000000" font-family="sans-serif" font-size="14" lengthAdjust="spacing" textLength="51.7298" x="223" y="269.0339">Create()</text><ellipse cx="214" cy="284.1698" fill="#84BE84" rx="3" ry="3" style="stroke:#038048;stroke-width:1.0;"/><text fill="#000000" font-family="sans-serif" font-size="14" lengthAdjust="spacing" textLength="31.5419" x="223" y="288.1018">Get()</text><ellipse cx="214" cy="303.2377" fill="#84BE84" rx="3" ry="3" style="stroke:#038048;stroke-width:1.0;"/><text fill="#000000" font-family="sans-serif" font-size="14" lengthAdjust="spacing" textLength="56.6578" x="223" y="307.1697">Update()</text><ellipse cx="214" cy="322.3056" fill="#84BE84" rx="3" ry="3" style="stroke:#038048;stroke-width:1.0;"/><text fill="#000000" font-family="sans-serif" font-size="14" lengthAdjust="spacing" textLength="50.9738" x="223" y="326.2376">Delete()</text></g><!--class EfCoreRepository--><g id="elem_EfCoreRepository"><rect codeLine="18" fill="#FEFECE" filter="url(#f13gsxlyt1if6i)" height="143.3396" id="EfCoreRepository" style="stroke:#A80036;stroke-width:1.0;" width="148.4435" x="411.5" y="191"/><ellipse cx="427.58" cy="207" fill="#ADD1B2" rx="11" ry="11" style="stroke:#A80036;stroke-width:1.0;"/><path d="M430.5487,212.6406 Q429.9706,212.9375 429.33,213.0781 Q428.6894,213.2344 427.9862,213.2344 Q425.4862,213.2344 424.1581,211.5938 Q422.8456,209.9375 422.8456,206.8125 Q422.8456,203.6875 424.1581,202.0313 Q425.4862,200.375 427.9862,200.375 Q428.6894,200.375 429.33,200.5313 Q429.9862,200.6875 430.5487,200.9844 L430.5487,203.7031 Q429.9237,203.125 429.33,202.8594 Q428.7362,202.5781 428.1112,202.5781 Q426.7675,202.5781 426.08,203.6563 Q425.3925,204.7188 425.3925,206.8125 Q425.3925,208.9063 426.08,209.9844 Q426.7675,211.0469 428.1112,211.0469 Q428.7362,211.0469 429.33,210.7813 Q429.9237,210.5 430.5487,209.9219 L430.5487,212.6406 Z " fill="#000000"/><text fill="#000000" font-family="sans-serif" font-size="14" lengthAdjust="spacing" textLength="114.0436" x="441.82" y="212.432">EfCoreRepository</text><line style="stroke:#A80036;stroke-width:1.0;" x1="412.5" x2="558.9435" y1="223" y2="223"/><line style="stroke:#A80036;stroke-width:1.0;" x1="412.5" x2="558.9435" y1="231" y2="231"/><ellipse cx="422.5" cy="246.034" fill="#84BE84" rx="3" ry="3" style="stroke:#038048;stroke-width:1.0;"/><text fill="#000000" font-family="sans-serif" font-size="14" lengthAdjust="spacing" textLength="122.4435" x="431.5" y="249.9659">EfCoreRepository()</text><ellipse cx="422.5" cy="265.1019" fill="#84BE84" rx="3" ry="3" style="stroke:#038048;stroke-width:1.0;"/><text fill="#000000" font-family="sans-serif" font-size="14" lengthAdjust="spacing" textLength="51.7298" x="431.5" y="269.0339">Create()</text><ellipse cx="422.5" cy="284.1698" fill="#84BE84" rx="3" ry="3" style="stroke:#038048;stroke-width:1.0;"/><text fill="#000000" font-family="sans-serif" font-size="14" lengthAdjust="spacing" textLength="31.5419" x="431.5" y="288.1018">Get()</text><ellipse cx="422.5" cy="303.2377" fill="#84BE84" rx="3" ry="3" style="stroke:#038048;stroke-width:1.0;"/><text fill="#000000" font-family="sans-serif" font-size="14" lengthAdjust="spacing" textLength="56.6578" x="431.5" y="307.1697">Update()</text><ellipse cx="422.5" cy="322.3056" fill="#84BE84" rx="3" ry="3" style="stroke:#038048;stroke-width:1.0;"/><text fill="#000000" font-family="sans-serif" font-size="14" lengthAdjust="spacing" textLength="50.9738" x="431.5" y="326.2376">Delete()</text></g><!--class ProxyRepository--><g id="elem_ProxyRepository"><rect codeLine="25" fill="#FEFECE" filter="url(#f13gsxlyt1if6i)" height="200.5433" id="ProxyRepository" style="stroke:#A80036;stroke-width:1.0;" width="251.4272" x="7" y="394"/><ellipse cx="74.6058" cy="410" fill="#ADD1B2" rx="11" ry="11" style="stroke:#A80036;stroke-width:1.0;"/><path d="M77.5745,415.6406 Q76.9964,415.9375 76.3558,416.0781 Q75.7151,416.2344 75.012,416.2344 Q72.512,416.2344 71.1839,414.5938 Q69.8714,412.9375 69.8714,409.8125 Q69.8714,406.6875 71.1839,405.0313 Q72.512,403.375 75.012,403.375 Q75.7151,403.375 76.3558,403.5313 Q77.012,403.6875 77.5745,403.9844 L77.5745,406.7031 Q76.9495,406.125 76.3558,405.8594 Q75.762,405.5781 75.137,405.5781 Q73.7933,405.5781 73.1058,406.6563 Q72.4183,407.7188 72.4183,409.8125 Q72.4183,411.9063 73.1058,412.9844 Q73.7933,414.0469 75.137,414.0469 Q75.762,414.0469 76.3558,413.7813 Q76.9495,413.5 77.5745,412.9219 L77.5745,415.6406 Z " fill="#000000"/><text fill="#000000" font-family="sans-serif" font-size="14" lengthAdjust="spacing" textLength="107.7156" x="95.1058" y="415.432">ProxyRepository</text><line style="stroke:#A80036;stroke-width:1.0;" x1="8" x2="257.4272" y1="426" y2="426"/><rect fill="none" height="6" style="stroke:#C82930;stroke-width:1.0;" width="6" x="15" y="438.034"/><text fill="#000000" font-family="sans-serif" font-size="14" lengthAdjust="spacing" textLength="146.3555" x="27" y="444.9659">IRepository repository</text><rect fill="none" height="6" style="stroke:#C82930;stroke-width:1.0;" width="6" x="15" y="457.1019"/><text fill="#000000" font-family="sans-serif" font-size="14" lengthAdjust="spacing" textLength="225.4272" x="27" y="464.0339">IFeatureManager featureManager</text><line style="stroke:#A80036;stroke-width:1.0;" x1="8" x2="257.4272" y1="472.1358" y2="472.1358"/><rect fill="#F24D5C" height="6" style="stroke:#C82930;stroke-width:1.0;" width="6" x="15" y="484.1698"/><text fill="#000000" font-family="sans-serif" font-size="14" lengthAdjust="spacing" textLength="180.8233" x="27" y="491.1018">IRepository GetRepository()</text><ellipse cx="18" cy="506.2377" fill="#84BE84" rx="3" ry="3" style="stroke:#038048;stroke-width:1.0;"/><text fill="#000000" font-family="sans-serif" font-size="14" lengthAdjust="spacing" textLength="223.4112" x="27" y="510.1697">ProxyRepository(featureManager)</text><ellipse cx="18" cy="525.3056" fill="#84BE84" rx="3" ry="3" style="stroke:#038048;stroke-width:1.0;"/><text fill="#000000" font-family="sans-serif" font-size="14" lengthAdjust="spacing" textLength="51.7298" x="27" y="529.2376">Create()</text><ellipse cx="18" cy="544.3735" fill="#84BE84" rx="3" ry="3" style="stroke:#038048;stroke-width:1.0;"/><text fill="#000000" font-family="sans-serif" font-size="14" lengthAdjust="spacing" textLength="31.5419" x="27" y="548.3055">Get()</text><ellipse cx="18" cy="563.4415" fill="#84BE84" rx="3" ry="3" style="stroke:#038048;stroke-width:1.0;"/><text fill="#000000" font-family="sans-serif" font-size="14" lengthAdjust="spacing" textLength="56.6578" x="27" y="567.3734">Update()</text><ellipse cx="18" cy="582.5094" fill="#84BE84" rx="3" ry="3" style="stroke:#038048;stroke-width:1.0;"/><text fill="#000000" font-family="sans-serif" font-size="14" lengthAdjust="spacing" textLength="50.9738" x="27" y="586.4414">Delete()</text></g><path d="M293.5,395 L293.5,466.8241 L207.8233,485.6698 L293.5,474.8241 L293.5,546.6481 A0,0 0 0 0 293.5,546.6481 L625.4473,546.6481 A0,0 0 0 0 625.4473,546.6481 L625.4473,405 L615.4473,395 L293.5,395 A0,0 0 0 0 293.5,395 " fill="#FBFB77" filter="url(#f13gsxlyt1if6i)" style="stroke:#A80036;stroke-width:1.0;"/><path d="M615.4473,395 L615.4473,405 L625.4473,405 L615.4473,395 " fill="#FBFB77" style="stroke:#A80036;stroke-width:1.0;"/><text fill="#000000" font-family="sans-serif" font-size="13" lengthAdjust="spacing" textLength="134.4331" x="299.5" y="413.897">if (repository == null) {</text><text fill="#000000" font-family="sans-serif" font-size="13" lengthAdjust="spacing" textLength="297.4272" x="313.02" y="431.603">if (featureManager.isEnabledEFCoreRepository) {</text><text fill="#000000" font-family="sans-serif" font-size="13" lengthAdjust="spacing" textLength="219.5572" x="326.54" y="449.309">repository = new EfCoreRepository()</text><text fill="#000000" font-family="sans-serif" font-size="13" lengthAdjust="spacing" textLength="40.885" x="313.02" y="467.0151">} else {</text><text fill="#000000" font-family="sans-serif" font-size="13" lengthAdjust="spacing" textLength="246.1422" x="326.54" y="484.7211">repository = new InMemoryRepository();</text><text fill="#000000" font-family="sans-serif" font-size="13" lengthAdjust="spacing" textLength="4.94" x="313.02" y="502.4271">}</text><text fill="#000000" font-family="sans-serif" font-size="13" lengthAdjust="spacing" textLength="4.94" x="299.5" y="520.1331">}</text><text fill="#000000" font-family="sans-serif" font-size="13" lengthAdjust="spacing" textLength="108.3941" x="299.5" y="537.8391">return repository;</text><path d="M293.5,556.6481 L293.5,566.5011 L83.6578,561.9415 L293.5,574.5011 L293.5,584.3541 A0,0 0 0 0 293.5,584.3541 L510.9952,584.3541 A0,0 0 0 0 510.9952,584.3541 L510.9952,566.6481 L500.9952,556.6481 L293.5,556.6481 A0,0 0 0 0 293.5,556.6481 " fill="#FBFB77" filter="url(#f13gsxlyt1if6i)" style="stroke:#A80036;stroke-width:1.0;"/><path d="M500.9952,556.6481 L500.9952,566.6481 L510.9952,566.6481 L500.9952,556.6481 " fill="#FBFB77" style="stroke:#A80036;stroke-width:1.0;"/><text fill="#000000" font-family="sans-serif" font-size="13" lengthAdjust="spacing" textLength="196.4952" x="299.5" y="575.5451">return GetRepository().Update();</text><!--class UseCase--><g id="elem_UseCase"><rect codeLine="51" fill="#FEFECE" filter="url(#f13gsxlyt1if6i)" height="48" id="UseCase" style="stroke:#A80036;stroke-width:1.0;" width="88.1398" x="36.5" y="45"/><ellipse cx="51.5" cy="61" fill="#ADD1B2" rx="11" ry="11" style="stroke:#A80036;stroke-width:1.0;"/><path d="M54.4688,66.6406 Q53.8906,66.9375 53.25,67.0781 Q52.6094,67.2344 51.9063,67.2344 Q49.4063,67.2344 48.0781,65.5938 Q46.7656,63.9375 46.7656,60.8125 Q46.7656,57.6875 48.0781,56.0313 Q49.4063,54.375 51.9063,54.375 Q52.6094,54.375 53.25,54.5313 Q53.9063,54.6875 54.4688,54.9844 L54.4688,57.7031 Q53.8438,57.125 53.25,56.8594 Q52.6563,56.5781 52.0313,56.5781 Q50.6875,56.5781 50,57.6563 Q49.3125,58.7188 49.3125,60.8125 Q49.3125,62.9063 50,63.9844 Q50.6875,65.0469 52.0313,65.0469 Q52.6563,65.0469 53.25,64.7813 Q53.8438,64.5 54.4688,63.9219 L54.4688,66.6406 Z " fill="#000000"/><text fill="#000000" font-family="sans-serif" font-size="14" lengthAdjust="spacing" textLength="56.1398" x="65.5" y="66.432">UseCase</text><line style="stroke:#A80036;stroke-width:1.0;" x1="37.5" x2="123.6398" y1="77" y2="77"/><line style="stroke:#A80036;stroke-width:1.0;" x1="37.5" x2="123.6398" y1="85" y2="85"/></g><!--link UseCase to IRepository--><g id="link_UseCase_IRepository"><path codeLine="53" d="M124.68,69 C136.19,69 141.7,69 153.21,69 " fill="none" id="UseCase-to-IRepository" style="stroke:#A80036;stroke-width:1.0;"/><polygon fill="#A80036" points="159.21,69,150.21,65,154.21,69,150.21,73,159.21,69" style="stroke:#A80036;stroke-width:1.0;"/></g><!--reverse link IRepository to InMemoryRepository--><g id="link_IRepository_InMemoryRepository"><path codeLine="55" d="M242.5784,147.758 C250.4384,166.798 252.3,171.32 260.4,190.96 " fill="none" id="IRepository-backto-InMemoryRepository" style="stroke:#A80036;stroke-width:1.0;stroke-dasharray:7.0,7.0;"/><polygon fill="none" points="235.71,131.12,237.0324,150.0475,248.1245,145.4686,235.71,131.12" style="stroke:#A80036;stroke-width:1.0;"/></g><!--reverse link IRepository to EfCoreRepository--><g id="link_IRepository_EfCoreRepository"><path codeLine="56" d="M276.7664,112.1911 C313.8264,136.0411 349.76,159.84 393.5,191 C399.32,195.15 405.29,199.5 411.27,203.92 " fill="none" id="IRepository-backto-EfCoreRepository" style="stroke:#A80036;stroke-width:1.0;stroke-dasharray:7.0,7.0;"/><polygon fill="none" points="261.63,102.45,273.5194,117.2365,280.0135,107.1456,261.63,102.45" style="stroke:#A80036;stroke-width:1.0;"/></g><!--reverse link IRepository to ProxyRepository--><g id="link_IRepository_ProxyRepository"><path codeLine="57" d="M176.9372,148.6358 C172.1672,167.7758 172.22,171.51 168.5,191 C155.61,258.56 142.25,334.84 134.34,393.9 " fill="none" id="IRepository-backto-ProxyRepository" style="stroke:#A80036;stroke-width:1.0;stroke-dasharray:7.0,7.0;"/><polygon fill="none" points="181.29,131.17,171.1153,147.1849,182.7592,150.0867,181.29,131.17" style="stroke:#A80036;stroke-width:1.0;"/></g><!--link ProxyRepository to IRepository--><g id="link_ProxyRepository_IRepository"><path codeLine="59" d="M167.3319,382.1553 C179.7119,323.0953 190.61,258.56 203.5,191 C207.22,171.51 210.5547,156.2318 213.6747,137.0918 " fill="none" id="ProxyRepository-IRepository" style="stroke:#A80036;stroke-width:1.0;"/><polygon fill="none" points="164.87,393.9,170.0159,388.8483,167.3319,382.1553,162.186,387.207,164.87,393.9" style="stroke:#A80036;stroke-width:1.0;"/><polygon fill="#A80036" points="214.64,131.17,209.2441,139.4092,213.8356,136.1049,217.1399,140.6963,214.64,131.17" style="stroke:#A80036;stroke-width:1.0;"/></g><!--SRC=[fLDBJiCm4Dtx5BDiXP83j2gRaA8kAY6a7i0qas9Xx6Zi213qxkHB_0cgeBE8F9cPz-PhNeG2qWOP4yeYbVo8i7l4IXjXDNt09uD6RZ92Rd6nxBLxjEFpK1MEuGubTjgPiQFani1ExV6r0OeXOyk8ydUodYilCqqOCuN_h-Lv8FqU5vIuRQEVvs3RDbGruPuhVaA2qbFZ-2QPED-0T-63_BiefhH5875wjg3BiBhLoikbYnObBAOAORC1LKkv71enUlZffSBaYZz9BFAjFmuthXKN6HI-mI_pQ-KCA0rU0fXRjVM4mQOlOPEoSX3M35K1ROSkzgbli0iJJ34TH-22zYjrC9ZnzWg71oGTJtBh7YDZCzUKrbNwvRj5Tp3Z4-vmwnBwH4uw2HBw1W00]--></g></svg>