<svg xmlns="http://www.w3.org/2000/svg" xmlns:xlink="http://www.w3.org/1999/xlink" contentStyleType="text/css" height="642px" preserveAspectRatio="none" style="width:741px;height:642px;background:#FFFFFF;" version="1.1" viewBox="0 0 741 642" width="741px" zoomAndPan="magnify"><defs><filter height="300%" id="f1uo6usugyzwle" width="300%" x="-1" y="-1"><feGaussianBlur result="blurOut" stdDeviation="2.0"/><feColorMatrix in="blurOut" result="blurOut2" type="matrix" values="0 0 0 0 0 0 0 0 0 0 0 0 0 0 0 0 0 0 .4 0"/><feOffset dx="4.0" dy="4.0" in="blurOut2" result="blurOut3"/><feBlend in="SourceGraphic" in2="blurOut3" mode="normal"/></filter></defs><g><!--cluster Web--><g id="cluster_Web"><rect fill="none" filter="url(#f1uo6usugyzwle)" height="297" style="stroke:#000000;stroke-width:1.5;" width="189" x="135" y="333"/><text fill="#000000" font-family="sans-serif" font-size="14" font-weight="bold" lengthAdjust="spacing" textLength="30.6739" x="214.1631" y="349.9659">Web</text></g><!--cluster Board--><g id="cluster_Board"><rect fill="none" filter="url(#f1uo6usugyzwle)" height="469" style="stroke:#000000;stroke-width:1.5;" width="265" x="464" y="7"/><text fill="#000000" font-family="sans-serif" font-size="14" font-weight="bold" lengthAdjust="spacing" textLength="41.7478" x="575.6261" y="23.9659">Board</text></g><g id="elem_W1"><ellipse cx="229.7253" cy="387.8772" fill="#FEFECE" filter="url(#f1uo6usugyzwle)" rx="51.2253" ry="16.8772" style="stroke:#A80036;stroke-width:1.0;"/><text fill="#000000" font-family="sans-serif" font-size="14" lengthAdjust="spacing" textLength="54.2638" x="199.5934" y="392.6102">Register</text></g><g id="elem_W2"><ellipse cx="229.4362" cy="457.1845" fill="#FEFECE" filter="url(#f1uo6usugyzwle)" rx="37.9362" ry="16.6845" style="stroke:#A80036;stroke-width:1.0;"/><text fill="#000000" font-family="sans-serif" font-size="14" lengthAdjust="spacing" textLength="36.6799" x="208.0963" y="461.9175">Login</text></g><g id="elem_W3"><ellipse cx="229.4257" cy="525.8069" fill="#FEFECE" filter="url(#f1uo6usugyzwle)" rx="45.4257" ry="16.8069" style="stroke:#A80036;stroke-width:1.0;"/><text fill="#000000" font-family="sans-serif" font-size="14" lengthAdjust="spacing" textLength="46.5918" x="203.1298" y="530.5398">Logout</text></g><g id="elem_W4"><ellipse cx="229.5887" cy="596.1177" fill="#FEFECE" filter="url(#f1uo6usugyzwle)" rx="78.5887" ry="18.1177" style="stroke:#A80036;stroke-width:1.0;"/><text fill="#000000" font-family="sans-serif" font-size="14" lengthAdjust="spacing" textLength="99.4276" x="176.8749" y="600.8507">Delete Account</text></g><g id="elem_B5"><ellipse cx="596.267" cy="66.0534" fill="#FEFECE" filter="url(#f1uo6usugyzwle)" rx="90.767" ry="20.5534" style="stroke:#A80036;stroke-width:1.0;"/><text fill="#000000" font-family="sans-serif" font-size="14" lengthAdjust="spacing" textLength="132.1035" x="527.2153" y="70.7864">Create Empty Board</text></g><g id="elem_B6"><ellipse cx="596.3166" cy="143.0633" fill="#FEFECE" filter="url(#f1uo6usugyzwle)" rx="93.3166" ry="21.0633" style="stroke:#A80036;stroke-width:1.0;"/><text fill="#000000" font-family="sans-serif" font-size="14" lengthAdjust="spacing" textLength="138.5295" x="524.0519" y="147.7963">Create Default Board</text></g><g id="elem_B1"><ellipse cx="596.6055" cy="215.995" fill="#FEFECE" filter="url(#f1uo6usugyzwle)" rx="65.1055" ry="16.995" style="stroke:#A80036;stroke-width:1.0;"/><text fill="#000000" font-family="sans-serif" font-size="14" lengthAdjust="spacing" textLength="72.6177" x="557.2966" y="220.7279">RUD Board</text></g><g id="elem_B2"><ellipse cx="596.3747" cy="286.1749" fill="#FEFECE" filter="url(#f1uo6usugyzwle)" rx="76.3747" ry="17.6749" style="stroke:#A80036;stroke-width:1.0;"/><text fill="#000000" font-family="sans-serif" font-size="14" lengthAdjust="spacing" textLength="92.9736" x="546.8879" y="290.9079">CRUD Column</text></g><g id="elem_B3"><ellipse cx="596.7008" cy="355.9956" fill="#FEFECE" filter="url(#f1uo6usugyzwle)" rx="65.2008" ry="16.9956" style="stroke:#A80036;stroke-width:1.0;"/><text fill="#000000" font-family="sans-serif" font-size="14" lengthAdjust="spacing" textLength="72.7437" x="557.3289" y="360.7286">CRUD Card</text></g><g id="elem_B4"><ellipse cx="596.6074" cy="434.2215" fill="#FEFECE" filter="url(#f1uo6usugyzwle)" rx="116.6074" ry="25.7215" style="stroke:#A80036;stroke-width:1.0;"/><text fill="#000000" font-family="sans-serif" font-size="14" lengthAdjust="spacing" textLength="193.7172" x="496.7488" y="438.9545">Move Card Between Columns</text></g><!--entity User--><g id="elem_User"><ellipse cx="404.3089" cy="218" fill="#FEFECE" filter="url(#f1uo6usugyzwle)" rx="8" ry="8" style="stroke:#A80036;stroke-width:2.0;"/><path d="M404.3089,226 L404.3089,253 M391.3089,234 L417.3089,234 M404.3089,253 L391.3089,268 M404.3089,253 L417.3089,268 " fill="none" filter="url(#f1uo6usugyzwle)" style="stroke:#A80036;stroke-width:2.0;"/><text fill="#000000" font-family="sans-serif" font-size="14" lengthAdjust="spacing" textLength="30.6179" x="389" y="289.9659">User</text></g><!--entity WebUser--><g id="elem_WebUser"><ellipse cx="37.8919" cy="424" fill="#FEFECE" filter="url(#f1uo6usugyzwle)" rx="8" ry="8" style="stroke:#A80036;stroke-width:2.0;"/><path d="M37.8919,432 L37.8919,459 M24.8919,440 L50.8919,440 M37.8919,459 L24.8919,474 M37.8919,459 L50.8919,474 " fill="none" filter="url(#f1uo6usugyzwle)" style="stroke:#A80036;stroke-width:2.0;"/><text fill="#000000" font-family="sans-serif" font-size="14" lengthAdjust="spacing" textLength="63.7838" x="6" y="495.9659">Web User</text></g><!--entity DesktopUser--><g id="elem_DesktopUser"><ellipse cx="229.3448" cy="170" fill="#FEFECE" filter="url(#f1uo6usugyzwle)" rx="8" ry="8" style="stroke:#A80036;stroke-width:2.0;"/><path d="M229.3448,178 L229.3448,205 M216.3448,186 L242.3448,186 M229.3448,205 L216.3448,220 M229.3448,205 L242.3448,220 " fill="none" filter="url(#f1uo6usugyzwle)" style="stroke:#A80036;stroke-width:2.0;"/><text fill="#000000" font-family="sans-serif" font-size="14" lengthAdjust="spacing" textLength="88.6897" x="185" y="241.9659">Desktop User</text></g><g id="elem_GMN5"><path d="M130,61.5 L130,124.618 A0,0 0 0 0 130,124.618 L225.5,124.618 L229.5,159.6 L233.5,124.618 L328.7622,124.618 A0,0 0 0 0 328.7622,124.618 L328.7622,71.5 L318.7622,61.5 L130,61.5 A0,0 0 0 0 130,61.5 " fill="#FBFB77" filter="url(#f1uo6usugyzwle)" style="stroke:#A80036;stroke-width:1.0;"/><path d="M318.7622,61.5 L318.7622,71.5 L328.7622,71.5 L318.7622,61.5 " fill="#FBFB77" style="stroke:#A80036;stroke-width:1.0;"/><text fill="#000000" font-family="sans-serif" font-size="13" lengthAdjust="spacing" textLength="156.1952" x="136" y="80.397">Runs the program locally,</text><text fill="#000000" font-family="sans-serif" font-size="13" lengthAdjust="spacing" textLength="142.6752" x="136" y="98.103">no internet connection,</text><text fill="#000000" font-family="sans-serif" font-size="13" lengthAdjust="spacing" textLength="177.7622" x="136" y="115.809">only one user per application</text></g><!--link DesktopUser to User--><g id="link_DesktopUser_User"><path d="M274.16,215.11 C311.79,225.55 346.5662,235.1942 371.5962,242.1442 " fill="none" id="DesktopUser-to-User" style="stroke:#A80036;stroke-width:1.0;"/><polygon fill="none" points="388.94,246.96,373.2014,236.3629,369.9909,247.9255,388.94,246.96" style="stroke:#A80036;stroke-width:1.0;"/></g><!--link WebUser to User--><g id="link_WebUser_User"><path d="M68.42,413.81 C83.9,393.7 104.37,370.8 127,355 C215.53,293.21 327.7866,266.3345 371.1566,257.4445 " fill="none" id="WebUser-to-User" style="stroke:#A80036;stroke-width:1.0;"/><polygon fill="none" points="388.79,253.83,369.9518,251.5667,372.3615,263.3223,388.79,253.83" style="stroke:#A80036;stroke-width:1.0;"/></g><!--link WebUser to W1--><g id="link_WebUser_W1"><path d="M70.26,444.6 C87.02,438.03 108.08,429.91 127,423 C148.71,415.07 167.5188,408.5397 187.0088,401.9197 " fill="none" id="WebUser-to-W1" style="stroke:#A80036;stroke-width:1.0;"/><polygon fill="#A80036" points="192.69,399.99,182.8817,399.0971,187.9556,401.5981,185.4546,406.672,192.69,399.99" style="stroke:#A80036;stroke-width:1.0;"/></g><!--link WebUser to W2--><g id="link_WebUser_W2"><path d="M70.29,457 C103.51,457 149.99,457 185.3,457 " fill="none" id="WebUser-to-W2" style="stroke:#A80036;stroke-width:1.0;"/><polygon fill="#A80036" points="191.3,457,182.3,453,186.3,457,182.3,461,191.3,457" style="stroke:#A80036;stroke-width:1.0;"/></g><!--link WebUser to W3--><g id="link_WebUser_W3"><path d="M70.26,469.4 C87.02,475.97 108.08,484.09 127,491 C149.58,499.25 169.4971,506.1552 189.3371,512.8752 " fill="none" id="WebUser-to-W3" style="stroke:#A80036;stroke-width:1.0;"/><polygon fill="#A80036" points="195.02,514.8,187.7789,508.1242,190.2843,513.196,185.2125,515.7013,195.02,514.8" style="stroke:#A80036;stroke-width:1.0;"/></g><!--link WebUser to W4--><g id="link_WebUser_W4"><path d="M67.1,500.03 C82.61,520.91 103.48,544.9 127,561 C141.07,570.63 152.354,575.9644 168.364,581.2644 " fill="none" id="WebUser-to-W4" style="stroke:#A80036;stroke-width:1.0;"/><polygon fill="#A80036" points="174.06,583.15,166.7731,576.5242,169.3133,581.5786,164.2589,584.1189,174.06,583.15" style="stroke:#A80036;stroke-width:1.0;"/></g><!--link User to B1--><g id="link_User_B1"><path d="M420.09,248.31 C445.99,243.54 495.2592,234.4665 536.8592,226.8065 " fill="none" id="User-to-B1" style="stroke:#A80036;stroke-width:1.0;"/><polygon fill="#A80036" points="542.76,225.72,533.1844,223.4159,537.8427,226.6255,534.6332,231.2837,542.76,225.72" style="stroke:#A80036;stroke-width:1.0;"/></g><!--link User to B2--><g id="link_User_B2"><path d="M420.09,253.69 C444.69,258.22 489.7793,266.5227 530.4793,274.0227 " fill="none" id="User-to-B2" style="stroke:#A80036;stroke-width:1.0;"/><polygon fill="#A80036" points="536.38,275.11,528.2539,269.5452,531.4628,274.2039,526.8041,277.4128,536.38,275.11" style="stroke:#A80036;stroke-width:1.0;"/></g><!--link User to B3--><g id="link_User_B3"><path d="M420.09,280.03 C428.69,294.36 440.87,310.74 456,321 C479.25,336.76 503.1081,344.3493 529.1581,349.1193 " fill="none" id="User-to-B3" style="stroke:#A80036;stroke-width:1.0;"/><polygon fill="#A80036" points="535.06,350.2,526.9276,344.6444,530.1418,349.2994,525.4867,352.5135,535.06,350.2" style="stroke:#A80036;stroke-width:1.0;"/></g><!--link User to B4--><g id="link_User_B4"><path d="M410.96,294.14 C417.01,324.77 429.67,364.78 456,390 C469.39,402.82 480.8454,409.8482 498.4454,416.2882 " fill="none" id="User-to-B4" style="stroke:#A80036;stroke-width:1.0;"/><polygon fill="#A80036" points="504.08,418.35,497.0026,411.5009,499.3845,416.6319,494.2535,419.0138,504.08,418.35" style="stroke:#A80036;stroke-width:1.0;"/></g><!--link User to B5--><g id="link_User_B5"><path d="M409.54,207.82 C414.87,174.96 427.25,130.94 456,104 C471.75,89.24 486.8671,81.6729 507.6971,76.0529 " fill="none" id="User-to-B5" style="stroke:#A80036;stroke-width:1.0;"/><polygon fill="#A80036" points="513.49,74.49,503.7588,72.9725,508.6626,75.7924,505.8427,80.6963,513.49,74.49" style="stroke:#A80036;stroke-width:1.0;"/></g><!--link User to B6--><g id="link_User_B6"><path d="M420.17,222.1 C428.8,207.8 440.97,191.41 456,181 C474.16,168.42 490.5206,161.5385 511.7806,155.8985 " fill="none" id="User-to-B6" style="stroke:#A80036;stroke-width:1.0;"/><polygon fill="#A80036" points="517.58,154.36,507.8552,152.8015,512.7472,155.6421,509.9066,160.534,517.58,154.36" style="stroke:#A80036;stroke-width:1.0;"/></g><!--SRC=[LL1DImCn4BtdLmnUL6WjzklWeM1RRmfIAPvZEjs6PZCXcLMA-j_D9ckRNTWmyzvBvhsvFZ2xy30QEICjDxMvKrIFce139UEnqxBoiXRXg2ru2YWCxXcOmElgmB3J7XLhiadXPDJ2grH7MU4Rdmn2IqjR6HH2AYOFsu2-Aw_UyIFrLo03nARarXYEJEx2Tq3I24kCqDAqBmaG4BzDOmFm0S5vQjs38IMDEGqoRGcqPVGM6HHPcmCC4aVMdEA1qBIlkVXBvunMCcL4kuDsiX3bpE7mPv5ZTH4YSeQ4ozjeuy5tcd6pmKg7QE0snRxFu3DLscPaV4QeuGnDChH6Wp7uerBKs8wQYj_Bb2L9l_kVi_8ee_gfTdpAJBgndFNeDUvbOxWKp3kVstM9TaPNBRmYqzJPxd9SucTrv_Y5FZ6Xi4J-GhJTrP1LoVnbROjs7Rrst6yd_NOgnBc9_YxrkAWdHJqjwbbHpyKV]--></g></svg>